<svg id="Layer_1" data-name="Layer 1" xmlns="http://www.w3.org/2000/svg" viewBox="0 0 199.72 243.04"><defs><style>.cls-1{fill:#5df;}.cls-2{fill:#f55;}</style></defs><title>beneficios</title><path class="cls-1" d="M53.17,158.37l-27,19.27c5,6.15,14.51,7,21.72,2s9.67-14.5,5.32-21.27"/><path class="cls-2" d="M51.85,156c.2.28.39.57.57.86l-27,19.32c-.22-.26-.44-.53-.65-.8A14.19,14.19,0,0,1,22.54,164a18,18,0,0,1,19.13-13.7A14.38,14.38,0,0,1,51.85,156"/><path class="cls-1" d="M133.89,28.88c-2.39,0-4.73,0-6.6.12-1.06.05-2,.11-2.7.2a9.25,9.25,0,0,0-1.09.19,3.51,3.51,0,0,0-.81.31c-.39.2-1.52.29-2,2.88l-4.08,19.9L41.75,52l-3-19.68L35.37,29l-3.95,0H23.31c-2.92,0-5.82.07-8,.16-1.11.05-2,.1-2.8.19a6.91,6.91,0,0,0-1.12.19,3.24,3.24,0,0,0-.88.35,3,3,0,0,0-1,.77,4.78,4.78,0,0,0-1.11,3.07V219.35c0,3.13,2.21,5.63,4.67,5.63H144.49a3.22,3.22,0,0,0,2.94-2,3.94,3.94,0,0,0,.34-1,5,5,0,0,0,.12-.66c0-.29,0-.48.06-.7,0-.45.05-1,.07-1.71,0-1.41.09-3.42.13-6,.08-5.11.16-13.57.23-22.3.16-17.45.29-40.69.41-63.94.08-17.44.16-34.88.22-49.86H142.2c-.06,14.6-.13,31.85-.22,49.81-.11,23.24-.25,46.48-.4,63.9-.08,8.71-.16,17.17-.24,22.23,0,1.71-.06,2.76-.09,3.93H15.19V37.41l.3,0c2.09-.09,5-.14,7.85-.16s5.81,0,8.05,0h1.17l3,19.68L38.9,60.3l80.29.47,3.32-3.14,4.16-20.29c.32,0,.49-.05.87-.06,2-.09,4.67-.13,7.36-.12s5.36.07,7.32.18h.12c0,1.36,0,9.64-.07,20.51h6.81c0-14.14.08-24.16.08-24.16v0a4.87,4.87,0,0,0-1-3,3.14,3.14,0,0,0-.95-.81,3,3,0,0,0-.89-.38,7.13,7.13,0,0,0-1.1-.22c-.73-.1-1.62-.16-2.68-.22-2.11-.12-4.85-.18-7.6-.19h-1"/><path class="cls-2" d="M79.87,0C72.06,0,66,6.84,66,14.83s6.09,14.83,13.9,14.83,13.9-6.84,13.9-14.83S87.68,0,79.87,0Zm0,6.74c3.8,0,7.12,3.42,7.12,8.09s-3.32,8.09-7.12,8.09-7.12-3.42-7.12-8.09,3.32-8.09,7.12-8.09"/><path class="cls-2" d="M130.2,91.52l-63.43.19a3.34,3.34,0,0,0-3,2.07,4.93,4.93,0,0,0,0,4.18,3.35,3.35,0,0,0,3,2l63.43-.19a3.35,3.35,0,0,0,3-2.07,4.94,4.94,0,0,0,0-4.17,3.35,3.35,0,0,0-3-2"/><path class="cls-2" d="M119.52,107.8l-52.77.42a3.35,3.35,0,0,0-3,2.07,4.93,4.93,0,0,0,0,4.18,3.31,3.31,0,0,0,3,2l52.76-.42a3.36,3.36,0,0,0,3-2.08,4.91,4.91,0,0,0,0-4.17,3.31,3.31,0,0,0-3-2"/><path class="cls-2" d="M165.84,94.73A3.78,3.78,0,0,0,164,95l-12.35,4.61c-2.4.9-3.87,4.23-3.1,7.14l24.34,92.36c.76,2.91,3.37,4.52,5.77,3.62L191,198.07c2.4-.89,3.87-4.22,3.11-7.13L169.8,98.57A4.91,4.91,0,0,0,165.84,94.73ZM164,103.61,187,191l-8.2,3.07-23-87.36,8.2-3.07"/><path class="cls-2" d="M195.89,195.83,190.54,198s-7.53,3-11.21,4.42l-5.69,2.12,4.3,4.88L191.72,225Zm-8.62,12.11-.08.54-.33-.38.41-.16"/><path class="cls-2" d="M112.92,21.46l-66.8.21a3.32,3.32,0,0,0-3,2.06,4.92,4.92,0,0,0,0,4.16,3.31,3.31,0,0,0,3,2L113,29.7a3.32,3.32,0,0,0,3-2.06,4.9,4.9,0,0,0,0-4.15,3.31,3.31,0,0,0-3-2"/><path class="cls-2" d="M24.51,105.63l5.95-.09,2.26,2.5,1.33-4.29L35,106l.79-.76,4.14.07,1.31-5.13.88,4.58,1.09,5.66,2.41-6.78,1.64,2.61,5.9.08c-.36.53-.72,1.06-1.37,2s-1.6,2.21-2.65,3.42a33.76,33.76,0,0,1-3.36,3.31c-1.14,1-2.26,1.83-3.19,2.52l-2.21,1.62c-.55.41-.91.7-1.49.51a10.5,10.5,0,0,1-2.28-1.59c-.9-.7-1.89-1.43-3-2.34s-2.38-2-3.5-3.07a31.72,31.72,0,0,1-3-3.16,29,29,0,0,1-1.93-2.74c-.41-.66-.54-.93-.61-1.06l-.07-.13"/><path class="cls-1" d="M24.6,104.37l5.95-.08,2,2,1.61-4.52,1,2.78.62-.41,3.52.08,2.06-7,2,10.42,2.1-5.8,2.13,3.28,5.55.09a26.69,26.69,0,0,0,1.8-3.81,25.77,25.77,0,0,0,1-4.21,8.14,8.14,0,0,0,0-3.36,5.63,5.63,0,0,0-1.55-2.54,4.42,4.42,0,0,0-1.91-1A10.86,10.86,0,0,0,51,89.91a13,13,0,0,0-1.72,0,11.73,11.73,0,0,0-2.53.5,14.3,14.3,0,0,0-2.63,1.23,18,18,0,0,0-2.38,1.63c-.79.64-1.6,1.42-2,1.83s-.45.46-1.11,0-1.93-1.32-3.3-2.12a31.17,31.17,0,0,0-4.11-2,14.79,14.79,0,0,0-3.25-1,5.07,5.07,0,0,0-2.23.07,4,4,0,0,0-1.63.93,5.12,5.12,0,0,0-1.24,1.77,7.55,7.55,0,0,0-.62,2.93,14.06,14.06,0,0,0,.59,4.15,29,29,0,0,0,1.44,3.72l.34.74"/><path class="cls-2" d="M129.39,153.78,66,154A3.34,3.34,0,0,0,63,156a4.93,4.93,0,0,0,0,4.18,3.32,3.32,0,0,0,3,2l63.43-.19a3.33,3.33,0,0,0,3-2.07,4.94,4.94,0,0,0,0-4.17,3.34,3.34,0,0,0-3-2"/><path class="cls-2" d="M118.71,170.06,66,170.48a3.33,3.33,0,0,0-3,2.07,4.89,4.89,0,0,0,0,4.18,3.32,3.32,0,0,0,3,2l52.76-.42a3.36,3.36,0,0,0,3-2.08,4.94,4.94,0,0,0,0-4.17,3.33,3.33,0,0,0-3-2"/></svg>