<svg id="Layer_1" data-name="Layer 1" xmlns="http://www.w3.org/2000/svg" viewBox="0 0 233.79 237.15"><defs><style>.cls-1{fill:#f55;}</style></defs><title>consultas</title><path d="M5.47,16.4c0,.85,0,1.69,0,2.54,0,44.69,28.72,80.84,63.9,80.84s63.93-36.15,63.93-80.84c0-.85,0-1.69,0-2.54h-6.86c0,.85,0,1.69,0,2.54,0,39.62-25.44,71.85-57.07,71.85S12.29,58.56,12.29,18.94c0-.85,0-1.69,0-2.54H5.47"/><path d="M30.82,15.44h-.21c-7.33.3-14.56.42-22,.8h0l0,.29h0l22.19-.81h0l0-.29"/><path d="M30.94,11.85h-.26c-7.36.3-14.66.42-22.26.81a3.73,3.73,0,1,0,.39,7.45c7.42-.39,14.7-.49,22.18-.81a3.73,3.73,0,0,0,0-7.46"/><path d="M107.78,15.44v.28h0l22.19.82h0v-.29h0c-7.44-.38-14.69-.5-22-.8"/><path d="M107.56,11.85a3.73,3.73,0,0,0,.06,7.46c7.48.31,14.78.42,22.2.81a3.73,3.73,0,0,0,3.55-5.43,3.68,3.68,0,0,0-3.17-2c-7.59-.39-14.92-.51-22.27-.81h-.37"/><path class="cls-1" d="M29.5,20.77h.28V9.32H29.5Z"/><path class="cls-1" d="M29.55,2.84a6.4,6.4,0,0,0-6.3,6.48V20.77a6.39,6.39,0,1,0,12.78,0V9.32a6.39,6.39,0,0,0-6.48-6.48"/><path class="cls-1" d="M108.84,20.77h.28V9.32h-.28Z"/><path class="cls-1" d="M108.89,2.84a6.4,6.4,0,0,0-6.3,6.48V20.77a6.39,6.39,0,1,0,12.78,0V9.32a6.39,6.39,0,0,0-6.48-6.48"/><path d="M73.06,96.42a3.79,3.79,0,0,0-3.78,3.39A205.51,205.51,0,0,0,68.12,134c.75,12.95,2.94,25.9,9.53,34.43,12.21,15.82,37.53,29.46,61.73,24.17a57.25,57.25,0,0,0,18.11-7.65A361.19,361.19,0,0,0,194,203.14a3.78,3.78,0,0,0,5.27-3.95,3.75,3.75,0,0,0-2.34-3c-7.19-3-20.3-9.41-32.43-16.22a81.49,81.49,0,0,0,6.81-6.14c8.72-8.79,15.1-19,17.38-28.36,4.56-18.69-9-32.83-21.31-29.2a0,0,0,0,1,0,0c-6.14,1.83-9.94,7.34-12.75,12.84-.49,1-.91,1.92-1.33,2.88-.52-1-1.06-1.93-1.67-2.87-2.72-4.27-6.26-8.29-11-10.3-9.52-4-21.06,2.22-22.83,13.55s5.19,25.45,17.77,37.3a100.69,100.69,0,0,0,14.6,10.78,47.2,47.2,0,0,1-12.34,4.75c-20.31,4.43-43.81-8-54.13-21.41-4.68-6.06-7.25-18-8-30.25a199.37,199.37,0,0,1,1.12-32.83,3.77,3.77,0,0,0-3.74-4.27Zm97.45,26.9c5.31-.42,14.16,6.59,10.8,20.34-1.79,7.32-7.48,16.84-15.4,24.82a70.42,70.42,0,0,1-8.55,7.34c-6.93-4.15-13.06-8.26-16.68-11.67-11.3-10.64-16.56-23.74-15.48-30.62h0c1.08-7,7.44-9.84,12.43-7.74,2.49,1,5.37,3.91,7.59,7.39a33.7,33.7,0,0,1,4.31,10c-.06.3-.16.67-.22,1h0a14.47,14.47,0,0,0-.36,4.49c.08.68-.3,1.45,1.44,3a4.69,4.69,0,0,0,4.08.68,3.57,3.57,0,0,0,1.83-1.51,6,6,0,0,0,1.09-3.91,18.59,18.59,0,0,0-.17-3.39,56.21,56.21,0,0,1,4.09-10.93c2.39-4.67,5.65-8.29,8.19-9.05a4,4,0,0,1,1-.18Zm-14,24a.6.6,0,0,1,0,.48,3.39,3.39,0,0,0,0-.48"/><path d="M211.15,191.57c-10.23,0-18.68,8.1-18.68,18.16s8.45,18.11,18.68,18.11,18.69-8.08,18.69-18.11S221.39,191.57,211.15,191.57Zm0,5.53A12.62,12.62,0,1,1,198,209.73a12.86,12.86,0,0,1,13.16-12.63"/><path class="cls-1" d="M219.26,210a8.11,8.11,0,1,1-8.11-8.08,8.1,8.1,0,0,1,8.11,8.08"/></svg>