<svg id="Layer_1" data-name="Layer 1" xmlns="http://www.w3.org/2000/svg" xmlns:xlink="http://www.w3.org/1999/xlink" viewBox="0 0 545.36 480"><defs><style>.cls-1{fill:none;}.cls-2,.cls-7{fill:#335296;}.cls-3,.cls-8{fill:#93d4da;}.cls-4{clip-path:url(#clip-path);}.cls-5{clip-path:url(#clip-path-2);}.cls-6{clip-path:url(#clip-path-3);}.cls-7,.cls-8{fill-rule:evenodd;}</style><clipPath id="clip-path"><rect class="cls-1" x="-688.62" y="-192.17" width="1920" height="1080"/></clipPath><clipPath id="clip-path-2"><polygon class="cls-1" points="345.33 189.18 473.93 303.11 473.93 189.18 345.33 189.18"/></clipPath><clipPath id="clip-path-3"><polygon class="cls-1" points="70.31 189.28 198.91 303.2 301.44 303.2 301.44 189.27 70.31 189.28"/></clipPath></defs><title>IsotipoNuevo</title><polygon class="cls-2" points="199.6 30.89 343.17 30.89 343.17 174.46 486.72 174.46 486.72 318.02 343.17 318.02 343.17 461.58 199.6 461.58 199.6 318.02 56.04 318.02 56.04 174.46 199.6 174.46 199.6 30.89"/><polygon class="cls-3" points="73.9 212.77 80.15 212.77 80.15 219.01 86.39 219.01 86.39 225.26 80.15 225.26 80.15 231.5 73.9 231.5 73.9 225.26 67.66 225.26 67.66 219.01 73.9 219.01 73.9 212.77"/><g class="cls-4"><path class="cls-3" d="M334.2,420.68c-7.22,0-11-2.56-14.27-4.82-2.95-2-5.49-3.75-10.81-3.75s-7.87,1.74-10.82,3.75c-3.3,2.26-7.05,4.82-14.26,4.82s-11-2.56-14.27-4.82c-2.94-2-5.49-3.75-10.81-3.75s-7.87,1.74-10.81,3.75c-3.31,2.26-7.05,4.82-14.27,4.82s-11-2.56-14.26-4.82c-3-2-5.49-3.75-10.81-3.75V406c7.21,0,11,2.56,14.26,4.82,3,2,5.49,3.75,10.81,3.75s7.87-1.74,10.81-3.75C248,408.55,251.74,406,259,406s11,2.56,14.27,4.82c2.94,2,5.48,3.75,10.81,3.75s7.86-1.74,10.81-3.75c3.3-2.26,7-4.82,14.27-4.82s11,2.56,14.26,4.82c2.95,2,5.49,3.75,10.82,3.75Z"/><path class="cls-3" d="M324,365.2a3.09,3.09,0,0,0-3.07-1.46l-20.55,3-19.86-15.38a3.06,3.06,0,0,0-2.32-.61l-30.23,4.39-1.83-13a3.11,3.11,0,0,0-1.2-2,3.07,3.07,0,0,0-2.27-.58L232,341.1a3.05,3.05,0,0,0-2.59,3.47l1.88,13-6.85,1a3.07,3.07,0,0,0-2.54,2.31L217,380.75s0,.06,0,.09l0,.16a1.94,1.94,0,0,0,0,.24.86.86,0,0,0,0,.16v.24c0,.05,0,.11,0,.16a2.42,2.42,0,0,0,0,.25l0,.14c0,.09.05.18.08.28a1,1,0,0,1,0,.1,2.83,2.83,0,0,0,.16.36.22.22,0,0,1,.05.08c0,.09.11.17.16.25a1.27,1.27,0,0,0,.1.12l.12.15,0,0,.05.06,7.55,7.68a36.3,36.3,0,0,1,8.36,13.57c0,.06,0,.11.07.16a8.62,8.62,0,0,1,1.21-.83,29.12,29.12,0,0,1,8.67-3.05,7.71,7.71,0,0,1,5.44-4.4c6.08-1.07,12-3.18,18-.25a14.76,14.76,0,0,1,3.84,2.74c.74.28,1.49.6,2.26,1s1.49.75,2.24,1.14c.23.12.9.61,1.19.8h.1l-.27-.25q1.32.32.51.27l.39,0,.62,0c5.78-.45,11.49-1.37,17.26-2.34a9.17,9.17,0,0,1,7.57-3.12c2.54-3,5.34-6.65,8.1-10.67l12.92-17.52a3.07,3.07,0,0,0,.16-3.39M224,377.79l3.28-13.49,5.25-.76,1.85,12.75Zm11.82-31.07,4.6-.67,1.41,10-4.56.66Zm4.62,28.69-1.85-12.75,12.13-1.76,1.85,12.75Zm18.19-2.64L256.81,360l12.42-1.81L271.08,371Zm18.48-2.68-1.85-12.74,2.46-.36,14.16,11Z"/><path class="cls-3" d="M334.2,407.16c-7.22,0-11-2.56-14.27-4.82-2.95-2-5.49-3.75-10.81-3.75s-7.87,1.73-10.82,3.75c-3.3,2.26-7.05,4.82-14.26,4.82s-11-2.56-14.27-4.82c-2.94-2-5.49-3.75-10.81-3.75s-7.87,1.73-10.81,3.75c-3.31,2.26-7.05,4.82-14.27,4.82s-11-2.56-14.26-4.82c-3-2-5.49-3.75-10.81-3.75v-6.13c7.21,0,11,2.56,14.26,4.82,3,2,5.49,3.75,10.81,3.75s7.87-1.73,10.81-3.75c3.31-2.26,7.05-4.82,14.27-4.82s11,2.56,14.27,4.82c2.94,2,5.48,3.75,10.81,3.75s7.86-1.73,10.81-3.75c3.3-2.26,7-4.82,14.27-4.82s11,2.56,14.26,4.82c2.95,2,5.49,3.75,10.82,3.75Z"/><path class="cls-3" d="M334.2,447.73c-7.22,0-11-2.56-14.27-4.82-2.95-2-5.49-3.75-10.81-3.75s-7.87,1.74-10.82,3.75c-3.3,2.26-7.05,4.82-14.26,4.82s-11-2.56-14.27-4.82c-2.94-2-5.49-3.75-10.81-3.75s-7.87,1.74-10.81,3.75c-3.31,2.26-7.05,4.82-14.27,4.82s-11-2.56-14.26-4.82c-3-2-5.49-3.75-10.81-3.75V433c7.21,0,11,2.56,14.26,4.82,3,2,5.49,3.75,10.81,3.75s7.87-1.74,10.81-3.75C248,435.6,251.74,433,259,433s11,2.56,14.27,4.82c2.94,2,5.48,3.75,10.81,3.75s7.86-1.74,10.81-3.75c3.3-2.26,7-4.82,14.27-4.82s11,2.56,14.26,4.82c2.95,2,5.49,3.75,10.82,3.75Z"/><path class="cls-3" d="M334.2,434.21c-7.22,0-11-2.56-14.27-4.82-2.95-2-5.49-3.75-10.81-3.75s-7.87,1.73-10.82,3.75c-3.3,2.26-7.05,4.82-14.26,4.82s-11-2.56-14.27-4.82c-2.94-2-5.49-3.75-10.81-3.75s-7.87,1.73-10.81,3.75c-3.31,2.26-7.05,4.82-14.27,4.82s-11-2.56-14.26-4.82c-3-2-5.49-3.75-10.81-3.75v-6.13c7.21,0,11,2.56,14.26,4.82,3,2,5.49,3.76,10.81,3.76s7.87-1.74,10.81-3.76c3.31-2.26,7.05-4.82,14.27-4.82s11,2.56,14.27,4.82c2.94,2,5.48,3.76,10.81,3.76s7.86-1.74,10.81-3.76c3.3-2.26,7-4.82,14.27-4.82s11,2.56,14.26,4.82c2.95,2,5.49,3.76,10.82,3.76Z"/></g><g class="cls-5"><rect class="cls-3" x="354.84" y="187.33" width="6.12" height="115.37"/><rect class="cls-3" x="345.42" y="187.33" width="6.12" height="115.37"/><rect class="cls-3" x="364.25" y="187.33" width="6.12" height="115.37"/><rect class="cls-3" x="373.67" y="187.33" width="6.12" height="115.37"/><rect class="cls-3" x="383.09" y="187.33" width="6.12" height="115.37"/><rect class="cls-3" x="392.5" y="187.33" width="6.12" height="115.37"/><rect class="cls-3" x="401.92" y="187.33" width="6.12" height="115.37"/><rect class="cls-3" x="411.33" y="187.33" width="6.12" height="115.37"/><rect class="cls-3" x="420.75" y="187.33" width="6.12" height="115.37"/><rect class="cls-3" x="430.16" y="187.33" width="6.12" height="115.37"/><rect class="cls-3" x="439.58" y="187.33" width="6.12" height="115.37"/><rect class="cls-3" x="449" y="187.33" width="6.12" height="115.37"/><rect class="cls-3" x="458.41" y="187.33" width="6.12" height="115.37"/><rect class="cls-3" x="467.83" y="187.33" width="6.12" height="115.37"/></g><g class="cls-6"><rect class="cls-3" x="79.82" y="187.42" width="6.12" height="115.37"/><rect class="cls-3" x="70.4" y="187.42" width="6.12" height="115.37"/><rect class="cls-3" x="89.23" y="187.42" width="6.12" height="115.37"/><rect class="cls-3" x="98.65" y="187.42" width="6.12" height="115.37"/><rect class="cls-3" x="108.06" y="187.42" width="6.12" height="115.37"/><rect class="cls-3" x="117.48" y="187.42" width="6.12" height="115.37"/><rect class="cls-3" x="126.9" y="187.42" width="6.12" height="115.37"/><rect class="cls-3" x="136.31" y="187.42" width="6.12" height="115.37"/><rect class="cls-3" x="145.73" y="187.42" width="6.12" height="115.37"/><rect class="cls-3" x="155.14" y="187.42" width="6.12" height="115.37"/><rect class="cls-3" x="164.56" y="187.42" width="6.12" height="115.37"/><rect class="cls-3" x="173.98" y="187.42" width="6.12" height="115.37"/><rect class="cls-3" x="183.39" y="187.42" width="6.12" height="115.37"/><rect class="cls-3" x="192.81" y="187.42" width="6.12" height="115.37"/><rect class="cls-3" x="211.92" y="188.46" width="6.12" height="115.37"/><rect class="cls-3" x="202.51" y="188.46" width="6.12" height="115.37"/><rect class="cls-3" x="221.34" y="188.46" width="6.12" height="115.37"/><rect class="cls-3" x="230.75" y="188.46" width="6.12" height="115.37"/><rect class="cls-3" x="240.17" y="188.46" width="6.12" height="115.37"/><rect class="cls-3" x="249.59" y="188.46" width="6.12" height="115.37"/><rect class="cls-3" x="259" y="188.46" width="6.12" height="115.37"/><rect class="cls-3" x="268.42" y="188.46" width="6.12" height="115.37"/><rect class="cls-3" x="277.83" y="188.46" width="6.12" height="115.37"/><rect class="cls-3" x="287.25" y="188.46" width="6.12" height="115.37"/><rect class="cls-3" x="296.67" y="188.46" width="6.12" height="115.37"/><rect class="cls-3" x="306.08" y="188.46" width="6.12" height="115.37"/><rect class="cls-3" x="315.5" y="188.46" width="6.12" height="115.37"/><rect class="cls-3" x="324.91" y="188.46" width="6.12" height="115.37"/></g><g class="cls-4"><polygon class="cls-3" points="334.2 189.27 301.44 189.27 301.44 303.2 340.65 303.2 462.8 303.2 334.2 189.27"/><polygon class="cls-7" points="239.91 381.36 243.81 381.36 243.81 385.15 246.91 382.98 249.15 386.17 245.25 388.9 249.15 391.62 246.91 394.82 243.81 392.64 243.81 396.43 239.91 396.43 239.91 392.64 236.8 394.82 234.56 391.62 238.46 388.9 234.56 386.17 236.8 382.98 239.91 385.15 239.91 381.36"/><polygon class="cls-8" points="149.28 272.61 157.26 272.61 157.26 280.37 163.62 275.92 168.2 282.46 160.23 288.04 168.2 293.62 163.62 300.15 157.26 295.7 157.26 303.46 149.28 303.46 149.28 295.7 142.92 300.15 138.34 293.62 146.31 288.04 138.34 282.46 142.92 275.92 149.28 280.37 149.28 272.61"/><polygon class="cls-2" points="302.75 258.51 223.03 187.81 382.21 187.89 302.75 258.51"/><polygon class="cls-8" points="282.12 195.18 263.63 182.51 286.04 183.13 278.52 162.02 296.28 175.69 302.62 154.19 308.95 175.69 326.71 162.02 319.2 183.13 341.61 182.51 323.12 195.18 341.61 207.85 319.2 207.23 326.71 228.35 308.95 214.68 302.62 236.18 296.28 214.68 278.52 228.35 286.04 207.23 263.63 207.85 282.12 195.18"/><path class="cls-2" d="M302.62,179.84a15.35,15.35,0,1,1-15.35,15.34,15.34,15.34,0,0,1,15.35-15.34"/><path class="cls-2" d="M134.61,198.21a14.56,14.56,0,1,1-14.56,14.56,14.56,14.56,0,0,1,14.56-14.56"/><path class="cls-3" d="M208.41,41.47A11.36,11.36,0,0,0,219.74,52l.58,0a24.19,24.19,0,0,0,43.44,8.63,14.55,14.55,0,0,0,18.92-13.87,14.38,14.38,0,0,0-1-5.31Z"/><path class="cls-3" d="M208.28,317.61a22.15,22.15,0,0,0,39.52,0Z"/><path class="cls-3" d="M247.8,317.61a15.41,15.41,0,0,0,27.49,0Z"/><path class="cls-3" d="M223.13,163.07a13.12,13.12,0,0,0,23.41,0Z"/><path class="cls-3" d="M208.49,175.19a13.12,13.12,0,0,0,23.41,0Z"/><path class="cls-3" d="M237.78,175.19a13.11,13.11,0,0,0,23.4,0Z"/><path class="cls-3" d="M298.19,122.55a13.12,13.12,0,0,0,23.41,0Z"/><path class="cls-3" d="M283.54,134.67a13.11,13.11,0,0,0,23.41,0Z"/><path class="cls-3" d="M312.83,134.67a13.11,13.11,0,0,0,23.41,0Z"/><polygon class="cls-2" points="248.25 306.05 302.74 257.16 357.6 306.05 297.87 306.05 248.25 306.05"/><polygon class="cls-3" points="134.61 246.24 170.56 218.34 223.78 265.27 243.23 246.14 307.53 303.46 198.91 303.46 134.61 246.24"/><polygon class="cls-8" points="117.92 265.93 108.4 257.45 134.61 257.45 117.92 242.6 101.23 227.76 84.55 242.6 67.86 257.45 94.07 257.45 84.55 265.93 67.86 280.77 93.36 280.77 84.55 288.62 67.86 303.46 101.23 303.46 134.61 303.46 117.92 288.62 109.11 280.77 134.61 280.77 117.92 265.93"/><path class="cls-3" d="M332,41.44H294.22A33.51,33.51,0,0,0,332,58.91Z"/><path class="cls-3" d="M209.8,103.74a2.43,2.43,0,0,1-.43-4.83L303.67,82a2.43,2.43,0,0,1,.86,4.79l-94.3,16.94a2.09,2.09,0,0,1-.43,0"/><path class="cls-3" d="M258.49,102.4a2.44,2.44,0,0,1-2.4-2l-1.91-10.68a2.43,2.43,0,0,1,4.79-.86l1.91,10.68a2.42,2.42,0,0,1-2,2.82,2.15,2.15,0,0,1-.43,0"/><path class="cls-3" d="M268.42,99.38s-14.23.67-23.78,5l-5.93,5s-20.6,4.26-21.43,18.13c0,0,5.65,6.12,21.76,3.22l19-3.41a32.77,32.77,0,0,0,8.09-4.65c4.63-3.46,11.69-10,11.69-10l36.41-8.79,10,8,5.64-2.71-.91-5.09,2.54-5.34L326,92.41l2.65-15.13s-5.92-2.12-7.57,1.37L313.24,99.4l-39.78,5.78Z"/><path class="cls-3" d="M231,134c-10.92,0-15.27-4.55-15.49-4.78a2.44,2.44,0,0,1-.64-1.8c.86-14.26,19-19.33,22.74-20.22l5.48-4.63a2.5,2.5,0,0,1,.56-.35C253.49,97.7,267.7,97,268.3,97a2.43,2.43,0,0,1,2,.83l4.16,4.8,37.05-5.38,7.32-19.41c0-.06,0-.13.08-.18,2.05-4.34,7.62-3.68,10.6-2.62A2.44,2.44,0,0,1,331,77.7l-2.45,14,4.75,5.46a2.43,2.43,0,0,1,.37,2.64l-2.21,4.64.78,4.32a2.45,2.45,0,0,1-1.35,2.63l-5.64,2.7a2.43,2.43,0,0,1-2.56-.29l-9.08-7.22L279,114.93c-1.67,1.53-7.37,6.7-11.41,9.72a35.26,35.26,0,0,1-8.76,5l-.36.1-19,3.41A48.37,48.37,0,0,1,231,134m-11.13-7.49c1.91,1.25,7.53,3.91,18.76,1.89L257.4,125a33.44,33.44,0,0,0,7.28-4.24c4.47-3.35,11.42-9.77,11.49-9.83a2.42,2.42,0,0,1,1.08-.58l33.94-8.19-37.38,5.43a2.45,2.45,0,0,1-2.19-.81l-4.25-4.9c-3.47.27-14,1.31-21.43,4.6l-5.66,4.79a2.42,2.42,0,0,1-1.08.52c-.18,0-17.51,3.79-19.35,14.69m18.86-17.07h0Zm75.76-7.91a2.48,2.48,0,0,1,1.28.52l8.81,7,2.6-1.25-.59-3.27a2.44,2.44,0,0,1,.2-1.48l1.86-3.9L324.16,94a2.43,2.43,0,0,1-.56-2l2.25-12.86c-1.12-.13-2.23-.06-2.55.5l-7.78,20.63a2.42,2.42,0,0,1-1,1.24"/><path class="cls-3" d="M239.29,143.45a9.79,9.79,0,0,1-6.84-2.42c-3.85-3.52-3.39-9.46-3.37-9.71a2.43,2.43,0,0,1,4.85.41c-.08,1.06.09,4.15,1.81,5.72,1.2,1.08,3.13,1.39,5.72.93l25.61-4.6a2.43,2.43,0,1,1,.86,4.78l-25.61,4.6a16.39,16.39,0,0,1-3,.29"/><path class="cls-3" d="M241.89,143.2a2.43,2.43,0,0,1-2.39-2L237.67,131a2.43,2.43,0,0,1,4.79-.86l1.83,10.19a2.44,2.44,0,0,1-2,2.83,3.11,3.11,0,0,1-.43,0"/><path class="cls-3" d="M261.36,139.71a2.43,2.43,0,0,1-2.39-2l-1.89-10.52a2.43,2.43,0,0,1,4.79-.86l1.89,10.52a2.45,2.45,0,0,1-2,2.83,3.13,3.13,0,0,1-.43,0"/><path class="cls-7" d="M260.42,121.72a10.21,10.21,0,1,1,10.2-10.21,10.22,10.22,0,0,1-10.2,10.21"/><polygon class="cls-8" points="258.52 104.2 262.31 104.2 262.31 107.88 265.32 105.77 267.5 108.87 263.72 111.51 267.5 114.16 265.32 117.26 262.31 115.15 262.31 118.83 258.52 118.83 258.52 115.15 255.51 117.26 253.34 114.16 257.12 111.51 253.34 108.87 255.51 105.77 258.52 107.88 258.52 104.2"/><path class="cls-2" d="M219.85,126.47s0-8.46,17.78-14.28l3.35,16s-14.47,3.16-21.13-1.68"/><path class="cls-2" d="M427.47,273.28a12.79,12.79,0,1,0,12.78-12.78,12.79,12.79,0,0,0-12.78,12.78"/><path class="cls-2" d="M440.25,288.57a15.29,15.29,0,1,1,15.29-15.29,15.31,15.31,0,0,1-15.29,15.29m0-25.57a10.28,10.28,0,1,0,10.28,10.28A10.29,10.29,0,0,0,440.25,263"/><path class="cls-2" d="M347.65,273.28a12.79,12.79,0,1,0,12.79-12.78,12.79,12.79,0,0,0-12.79,12.78"/><path class="cls-2" d="M360.44,288.57a15.29,15.29,0,1,1,15.29-15.29,15.31,15.31,0,0,1-15.29,15.29m0-25.57a10.28,10.28,0,1,0,10.28,10.28A10.29,10.29,0,0,0,360.44,263"/><path class="cls-2" d="M456.33,270.57l-7.53-12.79H432.63l-10.51,12.79h-46l-7.84-12.79H353l-7.66,12.79a5.22,5.22,0,0,1-6.24-3.21v-4.63h3.39l3.2-26.36h62.54L418,249l28.15,1.25,2.68,4.1s4.8,0,5.16,2.49a7,7,0,0,1-.18,3.65l.71,1.88h3.93v5.87Z"/><path class="cls-2" d="M344,273.25a7.51,7.51,0,0,1-7.18-4.92,2.47,2.47,0,0,1-.19-1v-4.63a2.5,2.5,0,0,1,2.5-2.5h1.17l2.94-24.17a2.5,2.5,0,0,1,2.48-2.2h62.54a2.53,2.53,0,0,1,2,1l9.08,11.73,27,1.2a2.5,2.5,0,0,1,2,1.13l2,3c2.87.31,5.82,1.63,6.24,4.57a12.48,12.48,0,0,1,.06,3.37h1.92a2.5,2.5,0,0,1,2.5,2.51v5.87a2.53,2.53,0,0,1-.66,1.7l-2.14,2.32a2.53,2.53,0,0,1-2.11.79,2.49,2.49,0,0,1-1.89-1.22l-6.8-11.55H433.81l-9.75,11.87a2.51,2.51,0,0,1-1.94.91h-46a2.52,2.52,0,0,1-2.14-1.19l-7.1-11.59h-12.5l-6.93,11.57A2.55,2.55,0,0,1,346,273a7.49,7.49,0,0,1-2,.27m-2.36-6.45a2.53,2.53,0,0,0,2.2,1.45l7-11.75a2.5,2.5,0,0,1,2.15-1.22h15.32a2.49,2.49,0,0,1,2.13,1.19l7.11,11.6h43.38l9.76-11.88a2.48,2.48,0,0,1,1.93-.91h13.82l-1.67-2.57-26.87-1.19a2.55,2.55,0,0,1-1.87-1l-9-11.68H347.91L345,263a2.51,2.51,0,0,1-2.48,2.21h-.88Zm114.27-1.92.08.13v-.13Zm-4.42-7.52.12.2a.59.59,0,0,1,0-.14l-.1-.06"/><path class="cls-2" d="M401.28,231.05H353.72a3.51,3.51,0,1,1,0-7h47.56a3.51,3.51,0,0,1,0,7"/><path class="cls-2" d="M418.74,282.36H382.26a3.51,3.51,0,1,1,0-7h36.48a3.51,3.51,0,1,1,0,7"/><polygon class="cls-3" points="413.82 247.86 406.04 237.36 394.34 237.36 394.34 247.86 413.82 247.86"/><path class="cls-8" d="M366.74,273.28a6.3,6.3,0,1,1-6.3-6.3,6.31,6.31,0,0,1,6.3,6.3"/><path class="cls-8" d="M446.56,273.28a6.31,6.31,0,1,1-6.31-6.3,6.32,6.32,0,0,1,6.31,6.3"/><path class="cls-8" d="M361.69,260.5A10.51,10.51,0,1,1,372.2,250a10.53,10.53,0,0,1-10.51,10.51"/><polygon class="cls-7" points="359.74 242.45 363.63 242.45 363.63 246.24 366.74 244.07 368.98 247.26 365.08 249.99 368.98 252.71 366.74 255.91 363.63 253.73 363.63 257.52 359.74 257.52 359.74 253.73 356.63 255.91 354.39 252.71 358.29 249.99 354.39 247.26 356.63 244.07 359.74 246.24 359.74 242.45"/><polygon class="cls-2" points="230.16 306.05 238.23 278.58 246.79 306.05 230.16 306.05"/><polygon class="cls-2" points="246.95 305.83 257.58 269.69 268.84 305.83 246.95 305.83"/><path class="cls-3" d="M311,319.64a10.49,10.49,0,0,1,12.35,0l5-5a17.49,17.49,0,0,0-22.37,0Z"/><path class="cls-3" d="M308.71,334.29a10.51,10.51,0,0,1,0-12.36l-5-5a17.51,17.51,0,0,0,0,22.36Z"/><path class="cls-3" d="M323.35,336.58a10.49,10.49,0,0,1-12.35,0l-5,5a17.51,17.51,0,0,0,22.36,0Z"/><path class="cls-3" d="M325.64,321.93a10.47,10.47,0,0,1,0,12.36l5,5a17.51,17.51,0,0,0,0-22.36Z"/><path class="cls-2" d="M235.89,263.3a18.29,18.29,0,0,0-33,0Z"/><path class="cls-2" d="M202.91,263.3a18.28,18.28,0,0,0-33,0Z"/><path class="cls-2" d="M226.15,239.9a18.28,18.28,0,0,0-23.31,23.32Z"/><path class="cls-2" d="M202.83,263.22a18.28,18.28,0,0,0-23.31,23.31Z"/><path class="cls-2" d="M225.71,286.53a18.28,18.28,0,0,0-23.31-23.31Z"/><path class="cls-2" d="M202.4,263.22a18.29,18.29,0,0,0-23.32-23.32Z"/><rect class="cls-2" x="198.04" y="259.32" width="8.84" height="44.96"/></g></svg>