<svg id="Layer_1" data-name="Layer 1" xmlns="http://www.w3.org/2000/svg" xmlns:xlink="http://www.w3.org/1999/xlink" viewBox="0 0 500.94 687.83"><defs><style>.cls-1{fill:none;}.cls-2,.cls-7{fill:#335296;}.cls-3{fill:#ef3e42;}.cls-4,.cls-8{fill:#93d4da;}.cls-5{clip-path:url(#clip-path);}.cls-6{clip-path:url(#clip-path-2);}.cls-7,.cls-8{fill-rule:evenodd;}</style><clipPath id="clip-path"><polygon class="cls-1" points="322.69 187.14 451.29 301.07 451.29 187.14 322.69 187.14"/></clipPath><clipPath id="clip-path-2"><polygon class="cls-1" points="47.67 187.23 176.27 301.16 278.81 301.16 278.81 187.23 47.67 187.23"/></clipPath></defs><title>LogoNuevo</title><path class="cls-2" d="M62.46,497.47,55.8,534.79h17q3,0,2.49,2.8l-1.64,9.33a3,3,0,0,1-3.19,2.8H39.17q-3,0-2.41-2.8l8.73-49.46a2.92,2.92,0,0,1,3.11-2.8H60Q62.93,494.66,62.46,497.47Z"/><path class="cls-2" d="M80.61,546.92l8.72-49.46a2.91,2.91,0,0,1,3.11-2.8h11.35c2,0,2.8.85,2.48,2.56l-8.76,49.69a3,3,0,0,1-3.18,2.81H83Q80.07,549.72,80.61,546.92Z"/><path class="cls-2" d="M143,530.36H125.66l-3,16.55c-.36,1.87-1.41,2.81-3.16,2.81H108.43q-2.94,0-2.39-2.79l8.72-49.46a2.91,2.91,0,0,1,3.09-2.81H150q3,0,2.49,2.8l-1.48,8.4a3,3,0,0,1-3.19,2.8H129.53l-1.43,8h17q2.88,0,2.41,2.8l-1.4,8.16A2.93,2.93,0,0,1,143,530.36Z"/><path class="cls-2" d="M187.62,528.49H170l-1.32,7.23h19q3,0,2.49,2.8l-1.48,8.4a3,3,0,0,1-3.19,2.8h-33c-2,0-2.78-.93-2.42-2.8l8.72-49.46a2.91,2.91,0,0,1,3.11-2.8h32.5q3,0,2.49,2.8l-1.48,8.4a3,3,0,0,1-3.18,2.8H173.54l-1.16,6.45h17.34c1.92,0,2.72.94,2.41,2.8l-1.4,7.86A2.89,2.89,0,0,1,187.62,528.49Z"/><path class="cls-2" d="M227.9,515.73h16.41c1.87,0,2.65.94,2.33,2.8l-4.43,25.12a4.29,4.29,0,0,1-2.41,3q-7.55,4-19.21,4-11,0-17.3-5.13T197,529.66a48.7,48.7,0,0,1,.78-7.78q2.56-14.85,10.81-21.5t21.61-6.65q11.45,0,17.11,4.27a3.13,3.13,0,0,1,1.25,1.6,3.64,3.64,0,0,1-.55,2.14l-4,7c-.88,1.55-2.26,2-4.12,1.24a24.4,24.4,0,0,0-8.79-1.63q-7.47,0-11.08,3t-5,10.81a30.38,30.38,0,0,0-.46,4.9c0,3.21.84,5.51,2.52,6.88s4.29,2.06,7.82,2.06a14.43,14.43,0,0,0,4-.46l1.32-7.63H226c-1.87,0-2.65-.9-2.34-2.72l1.17-6.69A2.92,2.92,0,0,1,227.9,515.73Z"/><path class="cls-2" d="M272.38,550.58q-20.69,0-20.68-16.26a32.42,32.42,0,0,1,.47-5.29l5.64-31.56c.31-1.87,1.34-2.81,3.09-2.81h11.27c1.95,0,2.78.93,2.47,2.78l-5.28,29.95a23,23,0,0,0-.24,3.35,4.21,4.21,0,0,0,4.9,4.9,6.39,6.39,0,0,0,5-1.94,12.77,12.77,0,0,0,2.52-6.22l5.3-30a2.91,2.91,0,0,1,3.11-2.8h11.37c2,0,2.81.94,2.49,2.8L298.19,529q-1.95,11-8.2,16.3T272.38,550.58Z"/><path class="cls-2" d="M327.68,494.66h14a2.81,2.81,0,0,1,3.11,2.49l7.39,49.23a3.11,3.11,0,0,1-.47,2.45,2.53,2.53,0,0,1-2.1.89H338c-1.92,0-2.95-.86-3.11-2.57l-.62-6H319.44l-2.73,6a3.88,3.88,0,0,1-3.73,2.57H300.93a2,2,0,0,1-1.91-.93,2.52,2.52,0,0,1,.27-2.41l24.81-49.23A3.79,3.79,0,0,1,327.68,494.66Zm-3.19,32.66h9.41l-1.56-16h-.23Z"/><path class="cls-2" d="M369.05,494.66h19.17q21.34,0,21.35,15.09a29.5,29.5,0,0,1-.47,4.9q-2,11.51-12.91,16.17l6.61,15.4a2.81,2.81,0,0,1,.08,2.49,2.11,2.11,0,0,1-2,1H390.1a3.5,3.5,0,0,1-3.67-2.26l-5.53-14.07-4.6,0-2.41,13.49c-.36,1.87-1.39,2.81-3.08,2.81H359.69q-3,0-2.46-2.79L366,497.47C366.26,495.6,367.29,494.66,369.05,494.66Zm9.63,25.42h5.6a9.22,9.22,0,0,0,5.49-1.35,6.58,6.58,0,0,0,2.38-4.28,9.2,9.2,0,0,0,.15-1.86,3.28,3.28,0,0,0-1.4-3.08,9.18,9.18,0,0,0-4.58-.85h-5.6Z"/><path class="cls-2" d="M430.22,549.72H412.35c-2,0-2.77-.93-2.4-2.79l8.64-49.47a2.91,2.91,0,0,1,3.11-2.8h16.72q11.82,0,17.69,4.86t5.87,15.2a44,44,0,0,1-.62,7.47q-2.33,14.46-9.78,21T430.22,549.72Zm5.6-40.44H433.4l-4.47,25.82h2.41c3.79,0,6.66-.92,8.64-2.76s3.39-5.22,4.27-10.15a36.48,36.48,0,0,0,.55-5.06q0-4.35-2.15-6.1T435.82,509.28Z"/><path class="cls-3" d="M63.41,615.72A23.26,23.26,0,0,0,74,613.18c.92-.41,1.54-.1,1.85.93l1.07,4q.32.85-1.38,1.77a27.89,27.89,0,0,1-13.94,3.39q-10.1,0-15.67-5.27t-5.58-15.29A42.29,42.29,0,0,1,41,595.4q2.39-13.64,9.74-20.75t18.83-7.13a33.62,33.62,0,0,1,8.2,1,18.31,18.31,0,0,1,5.81,2.27c.93.56,1.18,1.18.77,1.84L82,576.53c-.62,1-1.37,1.23-2.24.77a20.13,20.13,0,0,0-9.62-2.15q-16.95,0-20.48,20.25a38.59,38.59,0,0,0-.62,6.39Q49,615.73,63.41,615.72Z"/><path class="cls-3" d="M114.07,567.52q9.63,0,14.87,5.16t5.23,14.94a49.3,49.3,0,0,1-.77,7.85q-2.46,13.71-9.47,20.76t-18.33,7q-9.61,0-14.86-5.12t-5.23-15a47.58,47.58,0,0,1,.69-7.77q2.39-13.71,9.51-20.79T114.07,567.52Zm-7.85,48.28q14.94,0,18.56-20.4a40,40,0,0,0,.69-7q0-13.39-12.09-13.4-14.86,0-18.56,20.41a49.45,49.45,0,0,0-.61,7.08Q94.21,615.8,106.22,615.8Z"/><path class="cls-3" d="M176.06,606q0,8.63-6.39,12.93t-16,4.31a54.41,54.41,0,0,1-9.39-.8,23.83,23.83,0,0,1-6.7-2c-.93-.46-1.21-1-.85-1.77l2.31-4.16c.46-1,1.13-1.33,2-.92a30.75,30.75,0,0,0,12.4,2.23,25.64,25.64,0,0,0,4.66-.42,23,23,0,0,0,4.5-1.36,8.07,8.07,0,0,0,3.58-2.78,7.27,7.27,0,0,0,1.35-4.4,4.72,4.72,0,0,0-.65-2.44,10.29,10.29,0,0,0-1.33-1.85,8.81,8.81,0,0,0-2.54-1.62l-2.71-1.29L157,598.09a33,33,0,0,1-9.63-5.58,10.56,10.56,0,0,1-3.38-8.28q0-8.38,5.85-12.55t15.32-4.16q9,0,14.09,2.47a1.27,1.27,0,0,1,.77,1.85l-2.23,4a1.59,1.59,0,0,1-2.16.85,26.85,26.85,0,0,0-10.47-1.77q-12.55,0-12.55,8.31a5.53,5.53,0,0,0,.15,1.31,4.75,4.75,0,0,0,.51,1.19c.23.38.45.71.65,1a4.28,4.28,0,0,0,1,.92c.49.34.87.61,1.12.81a7.62,7.62,0,0,0,1.4.78l1.46.7,1.67.79,1.7.8,4.11,2a29.69,29.69,0,0,1,3.68,2.14,15.76,15.76,0,0,1,3.19,2.7,12,12,0,0,1,1.92,3.32A11.37,11.37,0,0,1,176.06,606Z"/><path class="cls-3" d="M187.3,574.53l.77-4.62a1.61,1.61,0,0,1,1.77-1.54H225c1.08,0,1.54.51,1.39,1.54l-.85,4.62a1.65,1.65,0,0,1-1.85,1.54H210.3L202.38,621a1.6,1.6,0,0,1-1.75,1.55h-5.25c-1.06,0-1.52-.51-1.37-1.54l7.92-44.89H188.61C187.48,576.07,187,575.56,187.3,574.53Z"/><path class="cls-3" d="M244.81,568.37h6.9a1.63,1.63,0,0,1,1.82,1.48l9.7,50.9A1.45,1.45,0,0,1,263,622a1.41,1.41,0,0,1-1.2.52H256a1.51,1.51,0,0,1-1.67-1.38l-1.93-11.63H229.71l-6,11.6a2.23,2.23,0,0,1-1.92,1.41h-6a1,1,0,0,1-1-.5,1.29,1.29,0,0,1,0-1.19l27.72-50.9A2.59,2.59,0,0,1,244.81,568.37ZM233.56,602.1h17.57l-4.2-25.34-.16,0Z"/><path class="cls-3" d="M304.94,568.37h15.61q20.13,0,20.13,13.71a29.17,29.17,0,0,1-.38,4.31q-2.4,14-17.51,16.26l11.4,17.87a1.32,1.32,0,0,1,0,1.33,1.29,1.29,0,0,1-1.27.65h-5.4a2.16,2.16,0,0,1-2.09-1.2l-11-17.59h-8.88l-3,17.26a1.66,1.66,0,0,1-1.76,1.53h-5.3q-1.69,0-1.38-1.53l9-51.05A1.66,1.66,0,0,1,304.94,568.37Zm1.91,28h9.25q7.56,0,11.18-2.42c2.41-1.62,3.91-4.2,4.47-7.74a23,23,0,0,0,.31-2.78,6.23,6.23,0,0,0-2.93-5.77c-1.95-1.18-5.05-1.77-9.32-1.77h-9.39Z"/><path class="cls-3" d="M345.07,621l9-51.05a1.68,1.68,0,0,1,1.77-1.54h5.4c1.08,0,1.51.3,1.31.91l-9.11,51.66a1.61,1.61,0,0,1-1.75,1.56h-5.25C345.37,622.5,344.92,622,345.07,621Z"/><path class="cls-3" d="M391.42,615.72A23.22,23.22,0,0,0,402,613.18c.93-.41,1.54-.1,1.85.93l1.08,4c.2.57-.26,1.16-1.39,1.77a27.85,27.85,0,0,1-13.93,3.39q-10.09,0-15.67-5.27t-5.59-15.29a42.35,42.35,0,0,1,.7-7.31q2.39-13.64,9.74-20.75t18.82-7.13a33.56,33.56,0,0,1,8.2,1,18.39,18.39,0,0,1,5.82,2.27c.92.56,1.18,1.18.77,1.84L410,576.53c-.62,1-1.36,1.23-2.23.77a20.14,20.14,0,0,0-9.63-2.15q-16.94,0-20.48,20.25a39.7,39.7,0,0,0-.62,6.39Q377,615.73,391.42,615.72Z"/><path class="cls-3" d="M439.38,568.37h6.9a1.63,1.63,0,0,1,1.83,1.48l9.7,50.9a1.42,1.42,0,0,1-.25,1.23,1.39,1.39,0,0,1-1.19.52h-5.83a1.52,1.52,0,0,1-1.68-1.38l-1.93-11.63H424.28l-6,11.6a2.22,2.22,0,0,1-1.91,1.41h-6a1.06,1.06,0,0,1-1-.5,1.35,1.35,0,0,1,0-1.19l27.72-50.9A2.59,2.59,0,0,1,439.38,568.37ZM428.13,602.1h17.58l-4.21-25.34-.15,0Z"/><polygon class="cls-2" points="176.96 28.85 320.53 28.85 320.53 172.42 464.09 172.42 464.09 315.98 320.53 315.98 320.53 459.54 176.96 459.54 176.96 315.98 33.4 315.98 33.4 172.42 176.96 172.42 176.96 28.85"/><polygon class="cls-4" points="51.27 210.73 57.51 210.73 57.51 216.97 63.75 216.97 63.75 223.22 57.51 223.22 57.51 229.46 51.27 229.46 51.27 223.22 45.02 223.22 45.02 216.97 51.27 216.97 51.27 210.73"/><path class="cls-4" d="M311.56,418.64c-7.22,0-11-2.56-14.27-4.82-3-2-5.49-3.75-10.81-3.75s-7.87,1.74-10.82,3.75c-3.3,2.26-7.05,4.82-14.26,4.82s-11-2.56-14.27-4.82c-2.94-2-5.49-3.75-10.81-3.75s-7.87,1.74-10.81,3.75c-3.31,2.26-7,4.82-14.27,4.82s-11-2.56-14.26-4.82c-2.95-2-5.49-3.75-10.81-3.75V404c7.21,0,11,2.56,14.26,4.82,2.95,2,5.49,3.75,10.81,3.75s7.87-1.74,10.81-3.75c3.31-2.26,7.06-4.82,14.27-4.82s11,2.56,14.27,4.82c2.94,2,5.49,3.75,10.81,3.75s7.86-1.74,10.81-3.75c3.3-2.26,7.05-4.82,14.27-4.82s11,2.56,14.26,4.82c2.95,2,5.49,3.75,10.82,3.75Z"/><path class="cls-4" d="M301.31,363.16a3.06,3.06,0,0,0-3.07-1.46l-20.54,3-19.87-15.37a3,3,0,0,0-2.31-.61l-30.24,4.39-1.83-13a3.07,3.07,0,0,0-3.47-2.6l-10.67,1.55a3.05,3.05,0,0,0-2.59,3.47l1.88,13-6.85,1a3.07,3.07,0,0,0-2.54,2.31l-4.84,19.9s0,.06,0,.09l0,.16a2.08,2.08,0,0,0,0,.23c0,.06,0,.12,0,.17a1.93,1.93,0,0,0,0,.24.86.86,0,0,0,0,.16,2,2,0,0,0,0,.24.77.77,0,0,0,0,.15l.09.27,0,.11c0,.12.1.24.16.36a.22.22,0,0,1,0,.08l.17.25.09.12.12.15,0,0,0,.06,7.55,7.68a36.22,36.22,0,0,1,8.36,13.57c0,.06.05.11.07.16a8.36,8.36,0,0,1,1.21-.83,28.94,28.94,0,0,1,8.67-3.05,7.7,7.7,0,0,1,5.44-4.41c6.08-1.06,12-3.17,18-.24a15.09,15.09,0,0,1,3.83,2.73c.75.29,1.5.61,2.26,1s1.5.75,2.24,1.13c.23.12.9.62,1.2.81h.09l-.27-.24c.89.21,1.05.3.52.26l.38,0,.62,0c5.78-.45,11.49-1.37,17.26-2.34a9.14,9.14,0,0,1,7.57-3.12c2.54-3.05,5.34-6.65,8.1-10.67l12.92-17.52a3.07,3.07,0,0,0,.16-3.39m-99.92,12.59,3.28-13.49,5.26-.76,1.84,12.74Zm11.83-31.07,4.59-.67,1.41,10-4.56.66Zm4.61,28.69L216,360.62l12.13-1.76L230,371.61ZM236,370.73,234.17,358l12.42-1.8,1.85,12.75Zm18.48-2.68-1.85-12.75,2.46-.35,14.16,10.95Z"/><path class="cls-4" d="M311.56,405.12c-7.22,0-11-2.57-14.27-4.82-3-2-5.49-3.76-10.81-3.76s-7.87,1.74-10.82,3.76c-3.3,2.25-7.05,4.82-14.26,4.82s-11-2.57-14.27-4.82c-2.94-2-5.49-3.76-10.81-3.76s-7.87,1.74-10.81,3.76c-3.31,2.25-7,4.82-14.27,4.82s-11-2.57-14.26-4.82c-2.95-2-5.49-3.76-10.81-3.76v-6.12c7.21,0,11,2.56,14.26,4.82,2.95,2,5.49,3.75,10.81,3.75s7.87-1.74,10.81-3.75c3.31-2.26,7.06-4.82,14.27-4.82s11,2.56,14.27,4.82c2.94,2,5.49,3.75,10.81,3.75s7.86-1.74,10.81-3.75c3.3-2.26,7.05-4.82,14.27-4.82s11,2.56,14.26,4.82c2.95,2,5.49,3.75,10.82,3.75Z"/><path class="cls-4" d="M311.56,445.69c-7.22,0-11-2.56-14.27-4.82-3-2-5.49-3.75-10.81-3.75s-7.87,1.74-10.82,3.75c-3.3,2.26-7.05,4.82-14.26,4.82s-11-2.56-14.27-4.82c-2.94-2-5.49-3.75-10.81-3.75s-7.87,1.74-10.81,3.75c-3.31,2.26-7,4.82-14.27,4.82s-11-2.56-14.26-4.82c-2.95-2-5.49-3.75-10.81-3.75V431c7.21,0,11,2.56,14.26,4.82,2.95,2,5.49,3.75,10.81,3.75s7.87-1.74,10.81-3.75c3.31-2.26,7.06-4.82,14.27-4.82s11,2.56,14.27,4.82c2.94,2,5.49,3.75,10.81,3.75s7.86-1.74,10.81-3.75c3.3-2.26,7.05-4.82,14.27-4.82s11,2.56,14.26,4.82c2.95,2,5.49,3.75,10.82,3.75Z"/><path class="cls-4" d="M311.56,432.17c-7.22,0-11-2.57-14.27-4.82-3-2-5.49-3.76-10.81-3.76s-7.87,1.74-10.82,3.76c-3.3,2.25-7.05,4.82-14.26,4.82s-11-2.57-14.27-4.82c-2.94-2-5.49-3.76-10.81-3.76s-7.87,1.74-10.81,3.76c-3.31,2.25-7,4.82-14.27,4.82s-11-2.57-14.26-4.82c-2.95-2-5.49-3.76-10.81-3.76v-6.12c7.21,0,11,2.56,14.26,4.82,2.95,2,5.49,3.75,10.81,3.75s7.87-1.74,10.81-3.75c3.31-2.26,7.06-4.82,14.27-4.82s11,2.56,14.27,4.82c2.94,2,5.49,3.75,10.81,3.75s7.86-1.74,10.81-3.75c3.3-2.26,7.05-4.82,14.27-4.82s11,2.56,14.26,4.82c2.95,2,5.49,3.75,10.82,3.75Z"/><g class="cls-5"><rect class="cls-4" x="332.2" y="185.29" width="6.12" height="115.37"/><rect class="cls-4" x="322.78" y="185.29" width="6.12" height="115.37"/><rect class="cls-4" x="341.62" y="185.29" width="6.12" height="115.37"/><rect class="cls-4" x="351.03" y="185.29" width="6.12" height="115.37"/><rect class="cls-4" x="360.45" y="185.29" width="6.12" height="115.37"/><rect class="cls-4" x="369.86" y="185.29" width="6.12" height="115.37"/><rect class="cls-4" x="379.28" y="185.29" width="6.12" height="115.37"/><rect class="cls-4" x="388.7" y="185.29" width="6.12" height="115.37"/><rect class="cls-4" x="398.11" y="185.29" width="6.12" height="115.37"/><rect class="cls-4" x="407.53" y="185.29" width="6.12" height="115.37"/><rect class="cls-4" x="416.94" y="185.29" width="6.12" height="115.37"/><rect class="cls-4" x="426.36" y="185.29" width="6.12" height="115.37"/><rect class="cls-4" x="435.77" y="185.29" width="6.12" height="115.37"/><rect class="cls-4" x="445.19" y="185.29" width="6.12" height="115.37"/></g><g class="cls-6"><rect class="cls-4" x="57.18" y="185.38" width="6.12" height="115.37"/><rect class="cls-4" x="47.76" y="185.38" width="6.12" height="115.37"/><rect class="cls-4" x="66.59" y="185.38" width="6.12" height="115.37"/><rect class="cls-4" x="76.01" y="185.38" width="6.12" height="115.37"/><rect class="cls-4" x="85.43" y="185.38" width="6.12" height="115.37"/><rect class="cls-4" x="94.84" y="185.38" width="6.12" height="115.37"/><rect class="cls-4" x="104.26" y="185.38" width="6.12" height="115.37"/><rect class="cls-4" x="113.67" y="185.38" width="6.12" height="115.37"/><rect class="cls-4" x="123.09" y="185.38" width="6.12" height="115.37"/><rect class="cls-4" x="132.51" y="185.38" width="6.12" height="115.37"/><rect class="cls-4" x="141.92" y="185.38" width="6.12" height="115.37"/><rect class="cls-4" x="151.34" y="185.38" width="6.12" height="115.37"/><rect class="cls-4" x="160.75" y="185.38" width="6.12" height="115.37"/><rect class="cls-4" x="170.17" y="185.38" width="6.12" height="115.37"/><rect class="cls-4" x="189.29" y="186.42" width="6.12" height="115.37"/><rect class="cls-4" x="179.87" y="186.42" width="6.12" height="115.37"/><rect class="cls-4" x="198.7" y="186.42" width="6.12" height="115.37"/><rect class="cls-4" x="208.12" y="186.42" width="6.12" height="115.37"/><rect class="cls-4" x="217.53" y="186.42" width="6.12" height="115.37"/><rect class="cls-4" x="226.95" y="186.42" width="6.12" height="115.37"/><rect class="cls-4" x="236.36" y="186.42" width="6.12" height="115.37"/><rect class="cls-4" x="245.78" y="186.42" width="6.12" height="115.37"/><rect class="cls-4" x="255.2" y="186.42" width="6.12" height="115.37"/><rect class="cls-4" x="264.61" y="186.42" width="6.12" height="115.37"/><rect class="cls-4" x="274.03" y="186.42" width="6.12" height="115.37"/><rect class="cls-4" x="283.44" y="186.42" width="6.12" height="115.37"/><rect class="cls-4" x="292.86" y="186.42" width="6.12" height="115.37"/><rect class="cls-4" x="302.28" y="186.42" width="6.12" height="115.37"/></g><polygon class="cls-4" points="311.56 187.23 278.81 187.23 278.81 301.16 318.01 301.16 440.16 301.16 311.56 187.23"/><polygon class="cls-7" points="217.27 379.32 221.17 379.32 221.17 383.11 224.27 380.94 226.51 384.13 222.62 386.86 226.51 389.58 224.27 392.77 221.17 390.6 221.17 394.39 217.27 394.39 217.27 390.6 214.16 392.77 211.93 389.58 215.82 386.86 211.93 384.13 214.16 380.94 217.27 383.11 217.27 379.32"/><polygon class="cls-8" points="126.64 270.56 134.62 270.56 134.62 278.33 140.98 273.87 145.56 280.41 137.59 285.99 145.56 291.57 140.98 298.11 134.62 293.66 134.62 301.42 126.64 301.42 126.64 293.66 120.28 298.11 115.7 291.57 123.67 285.99 115.7 280.41 120.28 273.87 126.64 278.33 126.64 270.56"/><polygon class="cls-2" points="280.11 256.47 200.39 185.77 359.57 185.85 280.11 256.47"/><polygon class="cls-8" points="259.48 193.14 240.99 180.47 263.4 181.09 255.88 159.97 273.65 173.65 279.98 152.14 286.31 173.65 304.08 159.97 296.56 181.09 318.97 180.47 300.48 193.14 318.97 205.81 296.56 205.19 304.08 226.31 286.31 212.63 279.98 234.13 273.65 212.63 255.88 226.31 263.4 205.19 240.99 205.81 259.48 193.14"/><path class="cls-2" d="M280,177.79a15.35,15.35,0,1,1-15.35,15.35A15.35,15.35,0,0,1,280,177.79"/><path class="cls-2" d="M112,196.17a14.56,14.56,0,1,1-14.56,14.56A14.56,14.56,0,0,1,112,196.17"/><path class="cls-4" d="M185.77,39.42A11.36,11.36,0,0,0,197.1,50h.58a24.19,24.19,0,0,0,43.44,8.63,14.7,14.7,0,0,0,4.38.67A14.54,14.54,0,0,0,259,39.42Z"/><path class="cls-4" d="M185.64,315.56a22.14,22.14,0,0,0,39.52,0Z"/><path class="cls-4" d="M225.16,315.56a15.4,15.4,0,0,0,27.49,0Z"/><path class="cls-4" d="M200.49,161a13.12,13.12,0,0,0,23.41,0Z"/><path class="cls-4" d="M185.85,173.15a13.12,13.12,0,0,0,23.41,0Z"/><path class="cls-4" d="M215.14,173.15a13.11,13.11,0,0,0,23.4,0Z"/><path class="cls-4" d="M275.55,120.5a13.11,13.11,0,0,0,23.41,0Z"/><path class="cls-4" d="M260.91,132.63a13.11,13.11,0,0,0,23.4,0Z"/><path class="cls-4" d="M290.19,132.63a13.12,13.12,0,0,0,23.41,0Z"/><polygon class="cls-2" points="225.61 304 280.1 255.12 334.96 304 275.23 304 225.61 304"/><polygon class="cls-4" points="111.97 244.2 147.93 216.29 201.14 263.23 220.59 244.1 284.89 301.42 176.27 301.42 111.97 244.2"/><polygon class="cls-8" points="95.28 263.88 85.76 255.41 111.97 255.41 95.28 240.56 78.59 225.71 61.91 240.56 45.22 255.41 71.43 255.41 61.91 263.88 45.22 278.73 70.72 278.73 61.91 286.57 45.22 301.42 78.59 301.42 111.97 301.42 95.28 286.57 86.47 278.73 111.97 278.73 95.28 263.88"/><path class="cls-4" d="M309.33,39.4H271.58a33.45,33.45,0,0,0,37.75,17.46Z"/><path class="cls-4" d="M187.16,101.7a2.43,2.43,0,0,1-.43-4.83L281,79.93a2.43,2.43,0,1,1,.86,4.78l-94.29,17a3.27,3.27,0,0,1-.44,0"/><path class="cls-4" d="M235.85,100.36a2.43,2.43,0,0,1-2.39-2l-1.92-10.68a2.43,2.43,0,0,1,4.79-.86l1.91,10.68a2.43,2.43,0,0,1-2,2.82,2.15,2.15,0,0,1-.43,0"/><path class="cls-4" d="M245.78,97.33s-14.23.68-23.78,5l-5.93,5s-20.59,4.26-21.43,18.12c0,0,5.65,6.13,21.77,3.23l19-3.41a33.19,33.19,0,0,0,8.09-4.65c4.64-3.46,11.69-10,11.69-10l36.41-8.79,10,8,5.64-2.7-.91-5.1,2.54-5.34-5.51-6.33L306,75.24s-5.93-2.13-7.58,1.36L290.6,97.36l-39.78,5.78Z"/><path class="cls-4" d="M208.34,131.92c-10.92,0-15.27-4.54-15.49-4.78a2.41,2.41,0,0,1-.64-1.79c.86-14.26,19-19.34,22.74-20.22l5.48-4.63a3,3,0,0,1,.56-.36c9.86-4.48,24.08-5.21,24.68-5.24a2.42,2.42,0,0,1,2,.84l4.17,4.8,37-5.38,7.31-19.42.08-.18c2-4.33,7.62-3.68,10.6-2.61a2.43,2.43,0,0,1,1.57,2.71l-2.45,14,4.76,5.46a2.45,2.45,0,0,1,.36,2.64l-2.21,4.63.78,4.33a2.44,2.44,0,0,1-1.34,2.62L302.65,112a2.43,2.43,0,0,1-2.56-.29L291,104.52l-34.65,8.37c-1.67,1.53-7.37,6.7-11.41,9.72a35.07,35.07,0,0,1-8.76,5,2.37,2.37,0,0,1-.36.09l-19,3.42a48.38,48.38,0,0,1-8.5.8m-11.13-7.49c1.91,1.26,7.53,3.91,18.77,1.9L234.76,123a32.74,32.74,0,0,0,7.28-4.24c4.47-3.34,11.42-9.76,11.49-9.82a2.28,2.28,0,0,1,1.08-.58l33.94-8.2-37.38,5.43a2.4,2.4,0,0,1-2.19-.81l-4.24-4.89c-3.47.26-14,1.3-21.43,4.6l-5.67,4.78a2.33,2.33,0,0,1-1.08.53c-.17,0-17.5,3.79-19.35,14.68m18.86-17.06h0Zm75.76-7.91a2.4,2.4,0,0,1,1.28.52l8.81,7,2.6-1.24-.59-3.27a2.43,2.43,0,0,1,.2-1.48L306,97.1,301.52,92a2.44,2.44,0,0,1-.56-2l2.25-12.86c-1.12-.14-2.22-.06-2.55.5l-7.78,20.62a2.45,2.45,0,0,1-1.05,1.25"/><path class="cls-4" d="M216.65,141.41a9.75,9.75,0,0,1-6.84-2.43c-3.85-3.51-3.39-9.45-3.36-9.7a2.43,2.43,0,0,1,4.84.41c-.08,1.06.09,4.15,1.82,5.71,1.2,1.09,3.12,1.4,5.71.93l25.61-4.6a2.43,2.43,0,1,1,.86,4.79l-25.61,4.6a16.31,16.31,0,0,1-3,.29"/><path class="cls-4" d="M219.25,141.16a2.43,2.43,0,0,1-2.39-2L215,129a2.43,2.43,0,1,1,4.79-.86l1.83,10.19a2.42,2.42,0,0,1-2,2.82,2.18,2.18,0,0,1-.44,0"/><path class="cls-4" d="M238.72,137.66a2.43,2.43,0,0,1-2.39-2l-1.89-10.52a2.43,2.43,0,1,1,4.79-.86l1.89,10.52a2.43,2.43,0,0,1-2,2.82,2.09,2.09,0,0,1-.43,0"/><path class="cls-7" d="M237.78,119.68A10.21,10.21,0,1,1,248,109.47a10.23,10.23,0,0,1-10.2,10.21"/><polygon class="cls-8" points="235.88 102.15 239.67 102.15 239.67 105.83 242.69 103.72 244.86 106.82 241.08 109.47 244.86 112.12 242.69 115.22 239.67 113.11 239.67 116.79 235.88 116.79 235.88 113.11 232.87 115.22 230.7 112.12 234.48 109.47 230.7 106.82 232.87 103.72 235.88 105.83 235.88 102.15"/><path class="cls-2" d="M197.21,124.43s0-8.46,17.78-14.28l3.35,16s-14.47,3.16-21.13-1.68"/><path class="cls-2" d="M404.83,271.24a12.79,12.79,0,1,0,12.78-12.79,12.79,12.79,0,0,0-12.78,12.79"/><path class="cls-2" d="M417.61,286.53a15.29,15.29,0,1,1,15.3-15.29,15.31,15.31,0,0,1-15.3,15.29m0-25.57a10.28,10.28,0,1,0,10.29,10.28A10.29,10.29,0,0,0,417.61,261"/><path class="cls-2" d="M325,271.24a12.79,12.79,0,1,0,12.79-12.79A12.79,12.79,0,0,0,325,271.24"/><path class="cls-2" d="M337.8,286.53a15.29,15.29,0,1,1,15.29-15.29,15.31,15.31,0,0,1-15.29,15.29m0-25.57a10.28,10.28,0,1,0,10.28,10.28A10.29,10.29,0,0,0,337.8,261"/><path class="cls-2" d="M433.69,268.53l-7.53-12.79H410l-10.51,12.79h-46l-7.84-12.79H330.36l-7.66,12.79a5.23,5.23,0,0,1-6.24-3.21v-4.63h3.39l3.21-26.37h62.53L395.38,247l28.15,1.25,2.68,4.1s4.81,0,5.16,2.49a7,7,0,0,1-.18,3.64l.72,1.88h3.92v5.88Z"/><path class="cls-2" d="M321.33,271.2a7.51,7.51,0,0,1-7.18-4.91,2.7,2.7,0,0,1-.19-1v-4.63a2.5,2.5,0,0,1,2.5-2.51h1.17L320.57,234a2.5,2.5,0,0,1,2.49-2.2h62.53a2.53,2.53,0,0,1,2,1l9.09,11.73,27,1.2a2.47,2.47,0,0,1,2,1.13l2,3c2.87.31,5.82,1.63,6.24,4.57a12.08,12.08,0,0,1,.06,3.37h1.92a2.5,2.5,0,0,1,2.5,2.5v5.88a2.53,2.53,0,0,1-.66,1.7l-2.14,2.32a2.51,2.51,0,0,1-4-.43l-6.8-11.55H411.18l-9.76,11.87a2.51,2.51,0,0,1-1.94.91h-46a2.52,2.52,0,0,1-2.14-1.19l-7.1-11.59h-12.5l-6.93,11.56a2.54,2.54,0,0,1-1.46,1.13,8.08,8.08,0,0,1-2.06.26M319,264.76a2.5,2.5,0,0,0,2.2,1.44l7-11.75a2.51,2.51,0,0,1,2.15-1.21h15.32a2.52,2.52,0,0,1,2.14,1.19l7.1,11.59H398.3l9.76-11.87a2.48,2.48,0,0,1,1.93-.91h13.83l-1.68-2.58-26.87-1.19a2.48,2.48,0,0,1-1.86-1l-9.05-11.68H325.27L322.34,261a2.51,2.51,0,0,1-2.49,2.2H319Zm114.28-1.92.07.13v-.13Zm-4.43-7.52.12.2c0-.05,0-.09,0-.14l-.1-.06"/><path class="cls-2" d="M378.64,229H331.08a3.51,3.51,0,1,1,0-7h47.56a3.51,3.51,0,0,1,0,7"/><path class="cls-2" d="M396.11,280.32H359.62a3.51,3.51,0,1,1,0-7h36.49a3.51,3.51,0,0,1,0,7"/><polygon class="cls-4" points="391.19 245.82 383.4 235.31 371.7 235.31 371.7 245.82 391.19 245.82"/><path class="cls-8" d="M344.11,271.24a6.31,6.31,0,1,1-6.31-6.3,6.32,6.32,0,0,1,6.31,6.3"/><path class="cls-8" d="M423.92,271.24a6.31,6.31,0,1,1-6.31-6.3,6.31,6.31,0,0,1,6.31,6.3"/><path class="cls-8" d="M339.05,258.45a10.51,10.51,0,1,1,10.51-10.51,10.53,10.53,0,0,1-10.51,10.51"/><polygon class="cls-7" points="337.1 240.41 341 240.41 341 244.2 344.1 242.03 346.34 245.22 342.45 247.94 346.34 250.67 344.1 253.86 341 251.69 341 255.48 337.1 255.48 337.1 251.69 333.99 253.86 331.76 250.67 335.65 247.94 331.76 245.22 333.99 242.03 337.1 244.2 337.1 240.41"/><polygon class="cls-2" points="207.52 304 215.59 276.54 224.15 304 207.52 304"/><polygon class="cls-2" points="224.31 303.79 234.94 267.65 246.2 303.79 224.31 303.79"/><path class="cls-4" d="M288.36,317.6a10.51,10.51,0,0,1,12.36,0l5-5a17.51,17.51,0,0,0-22.36,0Z"/><path class="cls-4" d="M286.07,332.24a10.49,10.49,0,0,1,0-12.35l-5-5a17.52,17.52,0,0,0,0,22.37Z"/><path class="cls-4" d="M300.72,334.53a10.47,10.47,0,0,1-12.36,0l-5,5a17.51,17.51,0,0,0,22.36,0Z"/><path class="cls-4" d="M303,319.89a10.49,10.49,0,0,1,0,12.35l5,5a17.52,17.52,0,0,0,0-22.37Z"/><path class="cls-2" d="M213.25,261.25a18.29,18.29,0,0,0-33,0Z"/><path class="cls-2" d="M180.28,261.25a18.3,18.3,0,0,0-33,0Z"/><path class="cls-2" d="M203.51,237.86a18.28,18.28,0,0,0-23.31,23.31Z"/><path class="cls-2" d="M180.2,261.17a18.29,18.29,0,0,0-23.32,23.32Z"/><path class="cls-2" d="M203.07,284.49a18.29,18.29,0,0,0-23.31-23.32Z"/><path class="cls-2" d="M179.76,261.17a18.28,18.28,0,0,0-23.31-23.31Z"/><rect class="cls-2" x="175.4" y="257.27" width="8.84" height="44.96"/><path class="cls-2" d="M46.71,648h4.43q.42,0,.36.42l-1.19,6.7a1,1,0,0,1-.56.71,9.28,9.28,0,0,1-4.59,1,6.8,6.8,0,0,1-4.59-1.37A5.2,5.2,0,0,1,39,651.34a13.2,13.2,0,0,1,.21-2.1q1.31-7.57,8.42-7.58a10.23,10.23,0,0,1,2.39.28,5.82,5.82,0,0,1,1.73.67c.23.16.3.33.18.5l-.6,1.09a.44.44,0,0,1-.63.21,6.34,6.34,0,0,0-3-.67,6,6,0,0,0-4.18,1.32,7.12,7.12,0,0,0-1.93,4.2,9.61,9.61,0,0,0-.19,1.81,3.57,3.57,0,0,0,1,2.82,4.7,4.7,0,0,0,3.17.92,6.43,6.43,0,0,0,2.77-.55l.75-4.35H46.39c-.29,0-.42-.13-.38-.4l.19-1.09A.45.45,0,0,1,46.71,648Z"/><path class="cls-2" d="M56.32,641.89h4.26q5.49,0,5.49,3.74a7.84,7.84,0,0,1-.11,1.18q-.64,3.83-4.77,4.43l3.11,4.87a.38.38,0,0,1,0,.37.36.36,0,0,1-.35.17H62.49a.58.58,0,0,1-.57-.32l-3-4.8H56.49l-.82,4.71a.45.45,0,0,1-.49.41H53.74c-.31,0-.43-.13-.38-.41l2.46-13.93A.45.45,0,0,1,56.32,641.89Zm.52,7.62h2.52a5.57,5.57,0,0,0,3-.66,2.92,2.92,0,0,0,1.22-2.11,5.42,5.42,0,0,0,.09-.75,1.71,1.71,0,0,0-.8-1.58,5.11,5.11,0,0,0-2.54-.48H57.81Z"/><path class="cls-2" d="M75.2,641.66a5.55,5.55,0,0,1,4.06,1.41,5.46,5.46,0,0,1,1.42,4.07,13.32,13.32,0,0,1-.21,2.14,10.38,10.38,0,0,1-2.58,5.66,6.74,6.74,0,0,1-5,1.92,5.55,5.55,0,0,1-4-1.39,5.47,5.47,0,0,1-1.43-4.09,13.76,13.76,0,0,1,.19-2.12,10.28,10.28,0,0,1,2.59-5.67A6.81,6.81,0,0,1,75.2,641.66Zm-2.14,13.17c2.72,0,4.4-1.86,5.06-5.57a10.45,10.45,0,0,0,.19-1.91q0-3.65-3.3-3.65-4,0-5.06,5.56a13.89,13.89,0,0,0-.17,1.93C69.78,653.62,70.88,654.83,73.06,654.83Z"/><path class="cls-2" d="M87.73,656.91A5.71,5.71,0,0,1,84,655.83a3.87,3.87,0,0,1-1.29-3.12,7.91,7.91,0,0,1,.12-1.33l1.6-9.07a.47.47,0,0,1,.5-.42h1.43c.3,0,.41.14.36.42l-1.57,8.88a9.18,9.18,0,0,0-.07,1.07c0,1.7,1,2.55,2.84,2.55q3.38,0,4-3.62l1.58-8.88a.45.45,0,0,1,.48-.42h1.43q.42,0,.36.42l-1.6,9.07C93.5,655.06,91.36,656.91,87.73,656.91Z"/><path class="cls-2" d="M110.6,642.29l-2.48,14a.43.43,0,0,1-.48.41h-1.41a.53.53,0,0,1-.53-.31l-5-10.61-1.85,10.5a.44.44,0,0,1-.46.42H97c-.31,0-.43-.14-.38-.42l2.46-13.92a.45.45,0,0,1,.5-.42H101a.48.48,0,0,1,.52.3l5,10.62,1.83-10.5a.44.44,0,0,1,.49-.42h1.41C110.49,641.89,110.62,642,110.6,642.29Z"/><path class="cls-2" d="M116,656.65h-4c-.31,0-.44-.14-.38-.41L114,642.31a.44.44,0,0,1,.48-.42h3.64a8.07,8.07,0,0,1,4.82,1.22,4.6,4.6,0,0,1,1.65,4,12.64,12.64,0,0,1-.19,2c-.48,2.78-1.4,4.73-2.75,5.87A8.63,8.63,0,0,1,116,656.65ZM117.9,644h-1.84l-1.86,10.56h1.89a6.12,6.12,0,0,0,4-1.17,7.07,7.07,0,0,0,2-4.31,9,9,0,0,0,.17-1.63,3.06,3.06,0,0,0-1.08-2.68A5.64,5.64,0,0,0,117.9,644Z"/><path class="cls-2" d="M127.32,656.61,126,659a.42.42,0,0,1-.4.24H125c-.24,0-.28-.12-.13-.36l1-2.19h-.49q-.42,0-.33-.39l.31-1.79a.45.45,0,0,1,.48-.4h1.58c.28,0,.4.13.36.4l-.3,1.64A2.27,2.27,0,0,1,127.32,656.61Z"/><path class="cls-2" d="M143.68,641.89h1.88a.45.45,0,0,1,.5.41l2.65,13.88a.41.41,0,0,1-.07.33.37.37,0,0,1-.33.14h-1.59a.4.4,0,0,1-.45-.37l-.53-3.17h-6.18l-1.64,3.16a.6.6,0,0,1-.53.38h-1.62a.3.3,0,0,1-.29-.13.38.38,0,0,1,0-.33l7.56-13.88A.71.71,0,0,1,143.68,641.89Zm-3.07,9.2h4.8l-1.15-6.91h0Z"/><path class="cls-2" d="M151,656.23l2.46-13.92a.45.45,0,0,1,.48-.42h1.47c.3,0,.41.08.36.25l-2.49,14.09a.43.43,0,0,1-.47.42h-1.43C151.09,656.65,151,656.51,151,656.23Z"/><path class="cls-2" d="M159.89,641.89h4.26q5.49,0,5.49,3.74a7.84,7.84,0,0,1-.11,1.18q-.65,3.83-4.77,4.43l3.11,4.87a.38.38,0,0,1,0,.37.36.36,0,0,1-.35.17h-1.47a.58.58,0,0,1-.57-.32l-3-4.8h-2.42l-.82,4.71a.45.45,0,0,1-.48.41h-1.45c-.31,0-.43-.13-.38-.41l2.46-13.93A.45.45,0,0,1,159.89,641.89Zm.52,7.62h2.53a5.55,5.55,0,0,0,3-.66,2.92,2.92,0,0,0,1.22-2.11,5.42,5.42,0,0,0,.09-.75,1.71,1.71,0,0,0-.8-1.58,5.11,5.11,0,0,0-2.54-.48h-2.56Z"/><path class="cls-2" d="M190.28,649.72a6.61,6.61,0,0,1-1.67,4.37l1.59,2.11a.29.29,0,0,1,0,.31.23.23,0,0,1-.24.14H188.4a.78.78,0,0,1-.62-.24l-.73-1a7.62,7.62,0,0,1-4.79,1.39,6.66,6.66,0,0,1-4-1.1,3.4,3.4,0,0,1-1.54-2.89,4.31,4.31,0,0,1,1.27-3.18,7.22,7.22,0,0,1,3.38-1.83l-.35-.47a3.83,3.83,0,0,1-.81-2.29,2.9,2.9,0,0,1,1.22-2.58,5.63,5.63,0,0,1,3.23-.84,6.72,6.72,0,0,1,2.83.52c.3.13.38.3.25.51l-.48.88a.47.47,0,0,1-.63.23,5.4,5.4,0,0,0-1.91-.33c-1.64,0-2.46.54-2.46,1.63a3.3,3.3,0,0,0,.91,1.84l4.29,5.68a4.23,4.23,0,0,0,.74-1.4,6.19,6.19,0,0,0,.19-1.67c0-.33.13-.5.38-.5h1.14C190.16,649,190.28,649.26,190.28,649.72Zm-7.7,5.21A5.41,5.41,0,0,0,186,654l-3.58-4.81a5.47,5.47,0,0,0-2.37,1.14,2.69,2.69,0,0,0-1,2.15,2.13,2.13,0,0,0,.94,1.78A4.31,4.31,0,0,0,182.58,654.93Z"/><path class="cls-2" d="M208.47,652.14a4,4,0,0,1-1.74,3.53,7.69,7.69,0,0,1-4.37,1.17,14.26,14.26,0,0,1-2.56-.22,6.26,6.26,0,0,1-1.83-.53c-.25-.13-.33-.29-.23-.49l.63-1.13c.12-.28.31-.36.54-.25a8.34,8.34,0,0,0,3.38.61,6.59,6.59,0,0,0,1.27-.12,6,6,0,0,0,1.23-.37,2.25,2.25,0,0,0,1-.76,1.93,1.93,0,0,0,.37-1.2,1.26,1.26,0,0,0-.18-.66,3.21,3.21,0,0,0-.36-.51,2.65,2.65,0,0,0-.69-.44l-.74-.35-.89-.42a8.78,8.78,0,0,1-2.62-1.53,2.85,2.85,0,0,1-.93-2.25,4,4,0,0,1,1.6-3.43,7.1,7.1,0,0,1,4.18-1.13,8.91,8.91,0,0,1,3.84.67.35.35,0,0,1,.21.51l-.61,1.09a.43.43,0,0,1-.59.23,7.3,7.3,0,0,0-2.85-.48c-2.28,0-3.43.75-3.43,2.26a1.36,1.36,0,0,0,0,.36,1.13,1.13,0,0,0,.13.33l.18.27a1.3,1.3,0,0,0,.29.25l.3.22a2.25,2.25,0,0,0,.38.21l.4.19.46.22.46.22,1.12.53a7,7,0,0,1,1,.58,4,4,0,0,1,.87.74,3.24,3.24,0,0,1,.53.9A3.1,3.1,0,0,1,208.47,652.14Z"/><path class="cls-2" d="M219.72,650.1h-6l-.8,4.52h6.28c.3,0,.42.13.38.4l-.21,1.19a.47.47,0,0,1-.5.44h-8.14c-.3,0-.43-.14-.37-.42l2.46-13.92a.44.44,0,0,1,.48-.42h8.07c.29,0,.41.14.35.42l-.21,1.2a.44.44,0,0,1-.48.42h-6.22l-.74,4.2h6c.27,0,.38.15.34.44l-.21,1.09A.44.44,0,0,1,219.72,650.1Z"/><path class="cls-2" d="M229.13,641.89H231a.45.45,0,0,1,.5.41l2.64,13.88a.37.37,0,0,1-.06.33.37.37,0,0,1-.33.14h-1.59a.4.4,0,0,1-.45-.37l-.53-3.17H225l-1.65,3.16a.58.58,0,0,1-.52.38h-1.63a.29.29,0,0,1-.28-.13.38.38,0,0,1,0-.33l7.56-13.88A.71.71,0,0,1,229.13,641.89Zm-3.07,9.2h4.8l-1.15-6.91h0Z"/><path class="cls-2" d="M250,652.76a.37.37,0,0,1-.37-.25l-2.93-6.69-1.84,10.42a.43.43,0,0,1-.46.41h-1.44c-.31,0-.44-.14-.38-.42L245,642.31a.45.45,0,0,1,.5-.42h1.37a.5.5,0,0,1,.49.25l3.17,7.22,5.73-7.21a.61.61,0,0,1,.52-.26h1.46c.29,0,.42.14.38.42l-2.46,13.93a.45.45,0,0,1-.48.41h-1.44q-.42,0-.36-.42l1.84-10.44-5.31,6.73A.54.54,0,0,1,250,652.76Z"/><path class="cls-2" d="M268.92,650.1h-6l-.8,4.52h6.28c.3,0,.42.13.38.4l-.21,1.19a.46.46,0,0,1-.5.44H260c-.31,0-.44-.14-.38-.42l2.46-13.92a.44.44,0,0,1,.48-.42h8.07q.43,0,.36.42l-.21,1.2a.45.45,0,0,1-.49.42h-6.21l-.75,4.2h6c.26,0,.37.15.33.44l-.21,1.09A.44.44,0,0,1,268.92,650.1Z"/><path class="cls-2" d="M275.73,656.65h-4c-.3,0-.43-.14-.37-.41l2.45-13.93a.44.44,0,0,1,.48-.42h3.63a8,8,0,0,1,4.82,1.22,4.6,4.6,0,0,1,1.65,4,11.55,11.55,0,0,1-.19,2c-.47,2.78-1.39,4.73-2.75,5.87A8.61,8.61,0,0,1,275.73,656.65ZM277.67,644h-1.84L274,654.55h1.89a6.14,6.14,0,0,0,4-1.17c.95-.79,1.61-2.22,2-4.31a10,10,0,0,0,.17-1.63,3.06,3.06,0,0,0-1.08-2.68A5.66,5.66,0,0,0,277.67,644Z"/><path class="cls-2" d="M285.85,656.23l2.46-13.92a.45.45,0,0,1,.48-.42h1.47c.3,0,.42.08.36.25l-2.48,14.09a.45.45,0,0,1-.48.42h-1.43C285.94,656.65,285.81,656.51,285.85,656.23Z"/><path class="cls-2" d="M298.49,654.81a6.25,6.25,0,0,0,2.88-.7c.25-.11.42,0,.51.26l.29,1.09c.06.15-.07.31-.38.48a7.56,7.56,0,0,1-3.8.92,6,6,0,0,1-4.27-1.43,5.45,5.45,0,0,1-1.53-4.17,12.23,12.23,0,0,1,.19-2A10.09,10.09,0,0,1,295,643.6a7.1,7.1,0,0,1,5.13-1.94,9.55,9.55,0,0,1,2.24.26,5.14,5.14,0,0,1,1.59.62c.25.16.32.32.21.51l-.65,1.07a.44.44,0,0,1-.61.21,5.52,5.52,0,0,0-2.63-.59q-4.62,0-5.59,5.52a11,11,0,0,0-.16,1.75Q294.57,654.8,298.49,654.81Z"/><path class="cls-2" d="M311.57,641.89h1.89a.44.44,0,0,1,.49.41l2.65,13.88a.35.35,0,0,1-.07.33.36.36,0,0,1-.32.14h-1.59a.41.41,0,0,1-.46-.37l-.53-3.17h-6.17l-1.65,3.16a.59.59,0,0,1-.52.38h-1.63a.29.29,0,0,1-.28-.13.35.35,0,0,1,0-.33L311,642.31A.7.7,0,0,1,311.57,641.89Zm-3.06,9.2h4.79l-1.15-6.91h0Z"/><path class="cls-2" d="M323.54,642.31l-2.13,12.24h6c.3,0,.42.13.38.38l-.25,1.3a.44.44,0,0,1-.48.42h-7.92c-.31,0-.43-.14-.38-.41l2.46-13.93a.45.45,0,0,1,.5-.42h1.45C323.47,641.89,323.58,642,323.54,642.31Z"/><path class="cls-2" d="M345.7,650.1h-6l-.8,4.52h6.28c.29,0,.42.13.38.4l-.21,1.19a.48.48,0,0,1-.51.44h-8.13c-.31,0-.43-.14-.38-.42l2.47-13.92a.44.44,0,0,1,.48-.42h8.06q.45,0,.36.42l-.21,1.2a.44.44,0,0,1-.48.42h-6.22l-.74,4.2h6c.27,0,.38.15.34.44l-.21,1.09A.44.44,0,0,1,345.7,650.1Z"/><path class="cls-2" d="M354.17,656.65h-1.81c-.25,0-.4-.14-.44-.44l-2.4-13.86c0-.3.1-.46.39-.46h1.48c.24,0,.38.14.41.42l1.4,8.5.38,3.47h0l1.62-3.51,4.37-8.48a.59.59,0,0,1,.56-.4h1.64a.28.28,0,0,1,.28.14.31.31,0,0,1,0,.32l-7.26,13.86A.7.7,0,0,1,354.17,656.65Z"/><path class="cls-2" d="M366.72,641.89h1.88a.45.45,0,0,1,.5.41l2.64,13.88a.37.37,0,0,1-.06.33.37.37,0,0,1-.33.14h-1.59a.4.4,0,0,1-.45-.37l-.53-3.17H362.6L361,656.27a.59.59,0,0,1-.52.38H358.8a.29.29,0,0,1-.28-.13.38.38,0,0,1,0-.33l7.56-13.88A.71.71,0,0,1,366.72,641.89Zm-3.07,9.2h4.79l-1.14-6.91h0Z"/><path class="cls-2" d="M380.29,654.81a6.31,6.31,0,0,0,2.88-.7c.25-.11.42,0,.5.26l.29,1.09c.06.15-.07.31-.37.48a7.6,7.6,0,0,1-3.81.92,6,6,0,0,1-4.27-1.43,5.48,5.48,0,0,1-1.52-4.17,11.22,11.22,0,0,1,.19-2,10.08,10.08,0,0,1,2.65-5.66,7.11,7.11,0,0,1,5.14-1.94,9.46,9.46,0,0,1,2.23.26,5.14,5.14,0,0,1,1.59.62c.25.16.32.32.21.51l-.65,1.07c-.17.26-.37.33-.61.21a5.49,5.49,0,0,0-2.63-.59q-4.62,0-5.58,5.52a11.14,11.14,0,0,0-.17,1.75Q376.36,654.8,380.29,654.81Z"/><path class="cls-2" d="M392,656.91a5.71,5.71,0,0,1-3.76-1.08,3.87,3.87,0,0,1-1.29-3.12,7.91,7.91,0,0,1,.12-1.33l1.6-9.07a.47.47,0,0,1,.5-.42h1.43q.44,0,.36.42l-1.57,8.88a9.18,9.18,0,0,0-.07,1.07c0,1.7.95,2.55,2.83,2.55q3.39,0,4-3.62l1.58-8.88a.44.44,0,0,1,.48-.42h1.43c.28,0,.4.14.35.42l-1.6,9.07C397.81,655.06,395.67,656.91,392,656.91Z"/><path class="cls-2" d="M407.88,641.89h1.88a.45.45,0,0,1,.5.41l2.64,13.88a.37.37,0,0,1-.06.33.37.37,0,0,1-.33.14h-1.59a.42.42,0,0,1-.46-.37l-.52-3.17h-6.18l-1.65,3.16a.59.59,0,0,1-.52.38H400a.29.29,0,0,1-.28-.13.38.38,0,0,1,0-.33l7.56-13.88A.71.71,0,0,1,407.88,641.89Zm-3.07,9.2h4.79l-1.14-6.91h0Z"/><path class="cls-2" d="M414.35,643.57l.21-1.26a.44.44,0,0,1,.48-.42h9.59c.3,0,.42.14.38.42l-.23,1.26a.45.45,0,0,1-.5.42h-3.66l-2.16,12.24a.43.43,0,0,1-.47.42h-1.44c-.29,0-.41-.14-.37-.41L418.34,644h-3.63Q414.25,644,414.35,643.57Z"/><path class="cls-2" d="M425,656.23l2.45-13.92a.46.46,0,0,1,.49-.42h1.47c.29,0,.41.08.36.25l-2.49,14.09a.44.44,0,0,1-.48.42h-1.43C425.12,656.65,425,656.51,425,656.23Z"/><path class="cls-2" d="M439.13,641.66a5,5,0,0,1,5.48,5.48,13.32,13.32,0,0,1-.21,2.14,10.45,10.45,0,0,1-2.58,5.66,6.75,6.75,0,0,1-5,1.92,5.55,5.55,0,0,1-4.05-1.39,5.43,5.43,0,0,1-1.43-4.09,12.62,12.62,0,0,1,.19-2.12,10.28,10.28,0,0,1,2.59-5.67A6.81,6.81,0,0,1,439.13,641.66ZM437,654.83q4.06,0,5.06-5.57a11.41,11.41,0,0,0,.19-1.91q0-3.65-3.3-3.65-4.05,0-5.06,5.56a13.89,13.89,0,0,0-.17,1.93Q433.71,654.84,437,654.83Z"/><path class="cls-2" d="M459.94,642.29l-2.48,14a.44.44,0,0,1-.49.41h-1.41a.54.54,0,0,1-.53-.31l-4.94-10.61-1.85,10.5a.45.45,0,0,1-.47.42h-1.4c-.3,0-.43-.14-.37-.42l2.45-13.92a.45.45,0,0,1,.5-.42h1.39a.49.49,0,0,1,.53.3l4.95,10.62,1.83-10.5a.45.45,0,0,1,.49-.42h1.42A.34.34,0,0,1,459.94,642.29Z"/></svg>