<svg id="Layer_1" data-name="Layer 1" xmlns="http://www.w3.org/2000/svg" viewBox="0 0 233.79 237.15"><defs><style>.cls-1{fill:#f55;}.cls-2{fill:#5df;}</style></defs><title>medicamentos</title><path class="cls-1" d="M112.89,118.58a6.6,6.6,0,0,0-4.37,1.61,5.1,5.1,0,0,0,0,7.79,6.51,6.51,0,0,0,4.36,1.62c3.4,0,6.15-2.47,6.15-5.51S116.29,118.58,112.89,118.58Zm-.4,1.65H114l1.8,5.15a.52.52,0,0,0,.31.49c0,.08.09.15.28.23,0,.05.11.1.35.12v.32h-3v-.32a1,1,0,0,0,.42-.12V125l-.41-.47h-2.33l-.29.45v.71c0,.3.19.46.58.49v.31H109.3v-.31c.2,0,.31,0,.35-.11s.3-.15.3-.27a.9.9,0,0,1,.28-.51Zm.14,1.21-1.06,2.6h2Z"/><path class="cls-2" d="M96,136.7a5.27,5.27,0,1,0,5.67,5.26A5.5,5.5,0,0,0,96,136.7Zm2.57,3.52a2.35,2.35,0,0,1,.93.13,1,1,0,0,1,.53.32.57.57,0,0,1,.29.48v.46c0,.12-.13.28-.39.47s-.51.43-.94.76c-.19.16-.39.31-.56.47a1.38,1.38,0,0,0-.37.37v0l1.28-.07a1.06,1.06,0,0,0,.34,0,.87.87,0,0,1,.28-.1v-.2h.43v1.09h-3.5v-.2a2.3,2.3,0,0,0,.45-.65,8.79,8.79,0,0,1,.75-.75l.64-.64a.73.73,0,0,0,.32-.48v-.46a.59.59,0,0,0-.29-.52,1,1,0,0,0-.54-.18.9.9,0,0,0-.51.18.56.56,0,0,0-.28.55h-.69v-.73a3.79,3.79,0,0,1,.74-.2l.52-.08a5.52,5.52,0,0,1,.57,0Zm-6.73.05h2.5c.28,0,.51,0,.71,0a1.94,1.94,0,0,1,.64.15.58.58,0,0,1,.38.28v.46c0,.46-.36.8-1.05,1a1.51,1.51,0,0,1,.77.39.82.82,0,0,1,.3.61v.53c0,.16-.13.27-.4.37a4,4,0,0,1-.61.2,4.23,4.23,0,0,1-.91.08H91.81v-.2s.09,0,.28-.06v-.25a1.27,1.27,0,0,0,0-.22V141a1.38,1.38,0,0,0,0-.22v-.26s-.09,0-.28-.07Zm2,.38h-.53v1.46l.5-.08a1.86,1.86,0,0,0,.59-.07c.2-.05.3-.13.32-.23v-.86c0-.1-.11-.17-.32-.2s-.39-.05-.56-.05Zm-.64,1.78.11,1.6.53,0a1.86,1.86,0,0,0,.59-.08.57.57,0,0,0,.37-.22v-.88c0-.1-.1-.17-.29-.26,0-.07-.12-.12-.33-.12a3.09,3.09,0,0,0-.44-.05h-.54"/><path class="cls-1" d="M130.61,131.48a3.56,3.56,0,1,0,3.67,3.56A3.63,3.63,0,0,0,130.61,131.48Zm-1.88,2h3.71v.82H132c0-.15-.11-.26-.3-.33,0-.05-.1-.1-.29-.12,0,0-.14,0-.43,0h-.74v1.31h.51a.84.84,0,0,0,.28,0s.1-.08.29-.13v-.22h.43v1.13h-.43v-.23c0-.05-.09-.07-.29-.12,0,0-.09,0-.28,0h-.51l.31.82a1,1,0,0,0,0,.2v.23a1,1,0,0,0,.29,0v.15h-2.08v-.15s.1,0,.29-.05v-.21a1,1,0,0,0,0-.2v-2.21a1,1,0,0,0,0-.2v-.21l-.29,0"/><path class="cls-2" d="M115.8,141.63a4.07,4.07,0,1,0,0,8.12,4.5,4.5,0,0,0,3.11-1.16,3.9,3.9,0,0,0,0-5.8A4.45,4.45,0,0,0,115.8,141.63Zm-2.09,1.94h1.85v.17c-.19,0-.29.08-.29.1v1.38h1.63v-.95a1.24,1.24,0,0,0,0-.3.28.28,0,0,1,0-.13s-.11-.07-.3-.1v-.17h1.87v.17c-.2,0-.3,0-.3.08V144a1.72,1.72,0,0,0,0,.23l0,2.43a1.15,1.15,0,0,0,0,.3v.13s.09.05.28.08v.17h-1.85v-.17c.19,0,.29-.05.29-.08V147a1,1,0,0,0,0-.31v-1.15h-1.62v1.15a1,1,0,0,0,0,.17V147a.09.09,0,0,1,0,.07v.08s.09,0,.28.05v.18h-1.85v-.18s.1,0,.29-.05v-.23c0-.05,0-.12,0-.22v-2.45a1.55,1.55,0,0,0,0-.23.38.38,0,0,1,0-.15v-.07s-.09,0-.29-.08"/><path class="cls-1" d="M127,152.48A5.87,5.87,0,0,0,123,154a4.83,4.83,0,0,0-1.62,3.58,5.57,5.57,0,0,0,11.1,0,4.85,4.85,0,0,0-1.63-3.58A5.83,5.83,0,0,0,127,152.48Zm-3.42,2h3.13a9.43,9.43,0,0,1,1.54.1,4,4,0,0,1,1.12.38,2.25,2.25,0,0,1,.77.63,2,2,0,0,1,.43.82v1.07a2.88,2.88,0,0,1-.3,1.29,7.52,7.52,0,0,1-.58,1,3.1,3.1,0,0,1-.91.59,5,5,0,0,1-1.19.34,12.54,12.54,0,0,1-1.48.07h-2.5v-.31c.19,0,.28,0,.28-.1s.1-.1.29-.15V160a1.9,1.9,0,0,0,0-.37v-4a2.13,2.13,0,0,0,0-.37v-.22c0-.06-.09-.11-.29-.16,0,0-.1-.07-.31-.1Zm2.68.55-.11,5.18h.51a2.79,2.79,0,0,0,1-.15,1.89,1.89,0,0,0,.53-.31,1.75,1.75,0,0,0,.53-.82,3,3,0,0,0,.29-1.36,3.21,3.21,0,0,0-.29-1.44,1.89,1.89,0,0,0-.8-.85,2.61,2.61,0,0,0-1.19-.27h-.48"/><path class="cls-2" d="M104,157.16a6.34,6.34,0,0,0-4.35,1.66,5.45,5.45,0,0,0,0,8.09,6.38,6.38,0,0,0,4.35,1.67,5.72,5.72,0,1,0,0-11.42Zm2,2.56v1.47h-.74a1.56,1.56,0,0,1-.29-.6c0-.1-.09-.17-.29-.22a2.33,2.33,0,0,0-.59-.08h-1.19v2.22h.74a.67.67,0,0,0,.34,0s.11-.08.3-.18c0-.08.1-.23.29-.42h.64v1.87h-.64a.43.43,0,0,0-.29-.41c0-.07-.1-.15-.3-.2,0,0-.11-.05-.34-.05h-.74v2.45h1.19a1.34,1.34,0,0,0,.32,0,.69.69,0,0,1,.3-.07s.09-.08.29-.13c0-.05.09-.12.29-.18,0-.07.1-.15.3-.25,0-.11.09-.26.29-.46h.74v1.68H101.2v-.3c.2,0,.28-.08.28-.1s.11-.1.31-.15v-.23c0-.1,0-.23,0-.36v-4a2.17,2.17,0,0,0,0-.37.86.86,0,0,1,0-.23s-.11-.1-.31-.15c0,0-.1-.07-.31-.1v-.3l4.82-.11"/><path class="cls-1" d="M84.51,151a3.44,3.44,0,0,0-3.39,3.25,3.11,3.11,0,0,0,1.07,2.32,3.94,3.94,0,0,0,2.6.95,3.28,3.28,0,1,0,0-6.52A1.31,1.31,0,0,0,84.51,151Zm-.77,1.31a2.17,2.17,0,0,1,.43,0,2.24,2.24,0,0,1,.42.07l-.14,0v.69h-.34a.4.4,0,0,0-.29-.39c0-.08-.1-.13-.31-.13a.69.69,0,0,0-.62.37,1.61,1.61,0,0,0-.29,1,1.51,1.51,0,0,0,.29,1,.79.79,0,0,0,.54.34c.19,0,.29,0,.29,0s.1-.07.3-.17v-.33h.31v.72l-.51.07-.45,0a1.91,1.91,0,0,1-.82-.18,1.2,1.2,0,0,1-.46-.53V154a1.4,1.4,0,0,1,.31-.89,3.6,3.6,0,0,1,.52-.59,1.56,1.56,0,0,1,.82-.2Zm2.19.89h.29l-.46.37v0a2,2,0,0,0,.39-.3,2,2,0,0,1,.39-.08l.29,0v.66h-.42v-.2c0-.05-.1-.07-.29-.07v.2a.16.16,0,0,0,0,.1s0,.1,0,.18v.75a1.85,1.85,0,0,0,0,.31.15.15,0,0,1,0,.13s.1.05.29.07v.16H85.23v-.16a.61.61,0,0,1,.29-.07v-.13s0-.15,0-.3v-1.37a.11.11,0,0,1,0-.08s-.11,0-.3,0v-.15l.7,0"/><path class="cls-1" d="M82.88,166a5.49,5.49,0,1,0,0,11,6.07,6.07,0,0,0,4.17-1.6,5.22,5.22,0,0,0,0-7.76A6.16,6.16,0,0,0,82.88,166Zm3.57,3.13H87v.9l0,2.79v.46s.09.07.29.1a1.8,1.8,0,0,0,.31.05l.56,0v.31h-3.8v-.31a3.68,3.68,0,0,0,.71-.05.73.73,0,0,0,.32-.07s.09-.1.29-.16v-3s-.09-.05-.29-.05l-.29.08a2.84,2.84,0,0,0-.67.32l-.29-.36Zm-8.32.1H81a5.35,5.35,0,0,1,.8,0,2.06,2.06,0,0,1,.72.17.83.83,0,0,1,.42.33v.48c0,.5-.39.86-1.15,1.12a2,2,0,0,1,.9.43.84.84,0,0,1,.32.68v.58c0,.16-.15.28-.46.41a2.38,2.38,0,0,1-.71.22,5.58,5.58,0,0,1-1,.08h-2.7v-.2c.19,0,.28-.05.28-.08v-.27a2,2,0,0,0,0-.28v-2.9a2,2,0,0,0,0-.26v-.28s-.09-.05-.28-.07Zm2.3.33-.59,0v1.61h.57a1.87,1.87,0,0,0,.71-.1.56.56,0,0,0,.37-.27v-.94c0-.1-.13-.18-.4-.23a2.62,2.62,0,0,0-.66-.07Zm-.74,2,.13,1.78h.59a2.18,2.18,0,0,0,.68-.08.75.75,0,0,0,.43-.27v-1c0-.13-.09-.21-.29-.28l-.37-.15c-.2,0-.39-.05-.56-.05h-.61"/><path class="cls-2" d="M140.4,166.52a5.43,5.43,0,0,0-3.65,1.37,4.45,4.45,0,0,0-1.51,3.3,4.93,4.93,0,0,0,5.16,4.66,5.37,5.37,0,0,0,3.64-1.36,4.35,4.35,0,0,0,0-6.6A5.45,5.45,0,0,0,140.4,166.52Zm-2.78,2.19h2.29v.22c-.19,0-.28,0-.28.08v.25a1.21,1.21,0,0,0,0,.3v1.27c.2,0,.31,0,.31,0s.09-.08.29-.13c0-.05.17-.2.51-.42s.41-.41.52-.53.3-.22.3-.3V169c0-.05-.11-.07-.3-.07v-.23h2.21V169c-.2,0-.29,0-.29.07s-.11.08-.3.15c0,.08-.14.18-.4.33l-1.28,1.2,1.27,1.86c.19.12.28.25.28.34s.1.15.29.17c0,0,.09.08.29.1,0,0,.11,0,.3.08v.23H141.2v-.23a1,1,0,0,1,.29,0v-.1a.17.17,0,0,0,0-.1.36.36,0,0,1,0-.15c0-.08-.09-.21-.28-.41l-.69-.83c0-.1-.11-.18-.31-.23,0,0-.09-.07-.28-.1,0,0-.09,0-.29,0v1.41a1.48,1.48,0,0,0,0,.22.54.54,0,0,1,0,.18v.18a1.76,1.76,0,0,0,.29.05v.22h-2.29v-.22c.19,0,.3-.05.3-.08v-.28a2.27,2.27,0,0,0,0-.28v-3.08a2.44,2.44,0,0,0,0-.28V169s-.11-.05-.3-.08"/><path class="cls-1" d="M120.25,167.57a4.73,4.73,0,1,0,5,4.72A4.91,4.91,0,0,0,120.25,167.57Zm1.74,3.36h1.82v.2c-.2,0-.29,0-.29.08s-.11.08-.31.18c0,.07-.09.2-.28.37l-1.77,3.75h-.94l-1.39-3.76c0-.15-.09-.27-.29-.35q0-.12-.3-.15c0-.05-.09-.08-.29-.1v-.21h2.31v.21c-.19,0-.3,0-.31.1v.4a1.87,1.87,0,0,1,0,.34l.82,2.42,1.54-2.41v-.76c0-.05-.11-.08-.32-.1"/><path class="cls-2" d="M134.32,185.21a3.62,3.62,0,1,0,.25,7.24,3.88,3.88,0,0,0,2.72-1,3.54,3.54,0,0,0,0-5.17,3.94,3.94,0,0,0-2.72-1Zm-.45,1.36h1.7v.22s-.1.06-.3.08v.25a2.36,2.36,0,0,0,0,.3v3c0,.08,0,.13,0,.23s0,.13,0,.15,0,.08,0,.1V191l.3.05v.22h-1.7v-.22s.09,0,.29-.08v-.28c0-.07,0-.15,0-.27v-3a2.27,2.27,0,0,0,0-.28v-.28s-.09-.05-.29-.07"/><path class="cls-1" d="M106.25,180.79a6,6,0,0,0-6.14,5.84,5.7,5.7,0,0,0,1.8,4.15,6.38,6.38,0,0,0,8.69,0,5.69,5.69,0,0,0,1.79-4.15A6,6,0,0,0,106.25,180.79ZM102.13,184H106v.23l-2.51,4.08h1.11a.59.59,0,0,0,.37-.08c0-.05.1-.13.29-.23a1.61,1.61,0,0,1,.3-.58h.52v1.32h-3.92v-.22l2.53-4.09h-1.07a.81.81,0,0,0-.41.07c0,.05-.09.16-.28.28,0,.12-.1.27-.29.48h-.54Zm7.46,1.33a1.67,1.67,0,0,1,.52.08c.2.05.31.12.33.22s.1.23.29.38v2.29a.12.12,0,0,1,0,.12v.08s.11,0,.3.05l-.11.17H109v-.22c.2,0,.3-.08.3-.1v-1.58c0-.16,0-.29,0-.41a1.13,1.13,0,0,1,0-.26.19.19,0,0,1,0-.15v-.18a1.29,1.29,0,0,0-.29,0l-.3.08c-.2,0-.29.12-.29.22v1.63c0,.23,0,.37,0,.46a.34.34,0,0,1,0,.2c0,.05.11.07.3.1v.23H106.8v-.23c.2,0,.3-.08.3-.1v-2.05a3.56,3.56,0,0,0,0-.38.54.54,0,0,1,0-.18v-.1s-.09,0-.29-.07v-.23l1.06,0h.51v.51a3.4,3.4,0,0,0,.42-.3,1.16,1.16,0,0,0,.37-.17,2.11,2.11,0,0,1,.43-.08"/><path class="cls-2" d="M144.88,137.36a6.24,6.24,0,0,0-4.34,1.75,5.9,5.9,0,0,0,0,8.47,6.27,6.27,0,0,0,8.69,0,5.9,5.9,0,0,0,0-8.47A6.26,6.26,0,0,0,144.88,137.36Zm.22,3.64a10,10,0,0,1,1,.05c.29,0,.59.08.87.13v1.34h-.74a.82.82,0,0,0-.42-.77,1.2,1.2,0,0,0-.75-.23,1.42,1.42,0,0,0-1.3.7,3.89,3.89,0,0,0-.45,2.08,3.71,3.71,0,0,0,.4,1.92,1.3,1.3,0,0,0,1.19.67,1.82,1.82,0,0,0,.67-.1.66.66,0,0,0,.4-.34.71.71,0,0,0,.29-.64H147v1.4l-1.11.17c-.32,0-.68.05-1.05.05a4.47,4.47,0,0,1-1.88-.35,2.21,2.21,0,0,1-1.05-1,4.12,4.12,0,0,1-.34-1.76,3.76,3.76,0,0,1,.4-1.75,2.74,2.74,0,0,1,1.2-1.13,4,4,0,0,1,1.89-.4"/><path class="cls-1" d="M155.16,155.66a4,4,0,0,0-2.8,1.1,3.66,3.66,0,0,0,0,5.35,4.09,4.09,0,0,0,5.58,0,3.65,3.65,0,0,0,0-5.34A4,4,0,0,0,155.16,155.66Zm-1.14,1.9h.45a2.67,2.67,0,0,1,.45.08v.72h-.31v-.3c0-.08-.1-.13-.29-.16,0,0-.11,0-.3,0l-.29,0s-.1.11-.29.16v.45c0,.07.09.13.29.2,0,.08.12.15.37.23a1.94,1.94,0,0,1,.45.3c.2.1.29.22.29.33v.94c0,.13-.13.26-.4.35a1.6,1.6,0,0,1-.63.1l-.54,0-.52-.08v-.77h.38a.47.47,0,0,0,.28.45c0,.07.15.12.45.12l.29,0s.1-.1.29-.15v-.53c0-.08-.09-.15-.29-.2,0-.08-.1-.13-.31-.21a.6.6,0,0,1-.32-.2c-.19-.07-.3-.12-.3-.22s-.09-.18-.29-.29V158c0-.12.14-.25.43-.32a1.7,1.7,0,0,1,.66-.1Zm2.48.88a1.13,1.13,0,0,1,.4.05c.19,0,.29.11.29.16s.11.1.3.2v.86h-1.61a.74.74,0,0,0,.31.65,1,1,0,0,0,.51.2c.19,0,.29,0,.31-.07s.1-.13.31-.23l.32.23a2.66,2.66,0,0,1-.51.37,1.35,1.35,0,0,1-.54.1,1.14,1.14,0,0,1-.88-.31,1.29,1.29,0,0,1-.29-.94V159c0-.2.14-.34.42-.44a1.43,1.43,0,0,1,.66-.15Zm.2.28c-.2,0-.31.07-.31.18v.55H157v-.55c0-.13-.09-.18-.28-.18"/><path class="cls-2" d="M190.82,72.6a45.66,45.66,0,0,0-22.77,8.26l-47.2,32.51v.23l48.24,46.79c0,.08.22.05.27,0l47.18-32.5C248.32,106,223,70.34,190.82,72.6Zm1.36,1.29a56.23,56.23,0,0,1,9.12.74,2.4,2.4,0,0,1,1.9,1.42,2.17,2.17,0,0,1-.36,2.27,2.44,2.44,0,0,1-2.25.84,41.12,41.12,0,0,0-11-.49c-3.64.47-7.84,2-12.14,3.54A2.5,2.5,0,0,1,174.9,82a2.22,2.22,0,0,1-.92-2.25A2.33,2.33,0,0,1,175.73,78c4.29-1.59,8.69-3.26,13.16-3.85a31.13,31.13,0,0,1,3.29-.25"/><path class="cls-1" d="M46.5,72.6C14.3,70.34-11,106,20.78,127.9L68,160.4s.27,0,.27,0l48.25-46.8v-.22L69.27,80.86A45.58,45.58,0,0,0,46.5,72.59Zm-6.24,2.52h.26c3.87,0,8-.05,12.36,1.13s8.48,3.42,12.52,5.56a2.27,2.27,0,0,1,1.23,2,2.25,2.25,0,0,1-1.17,2,2.57,2.57,0,0,1-2.41,0c-4-2.15-8-4.21-11.53-5.17a40.65,40.65,0,0,0-11-1,2.35,2.35,0,0,1-2.25-2.15,2.3,2.3,0,0,1,2-2.37"/></svg>