<svg id="Layer_1" data-name="Layer 1" xmlns="http://www.w3.org/2000/svg" viewBox="0 0 233.79 237.15"><defs><style>.cls-1{fill:#f55;}</style></defs><title>procedimientos</title><path class="cls-1" d="M41.23,33.27H9.89c-5,0-4.71,16.37-.25,16.41L41.23,50c5.05,0,5-16.69,0-16.69"/><path class="cls-1" d="M63,18.11a9.88,9.88,0,0,0,2.12,6.23,6.67,6.67,0,0,0,5.13,2.59c4,0,7.24-3.95,7.24-8.82s-3.24-8.84-7.24-8.84a6.67,6.67,0,0,0-5.13,2.59A9.93,9.93,0,0,0,63,18.11"/><path class="cls-1" d="M190.29,6.91H166.48c-3.77,0-3.57,22.45-.18,22.5l24,.38c3.84.05,3.77-22.88,0-22.88"/><path class="cls-1" d="M188.54,56.5A13.86,13.86,0,0,0,191.26,65a8.37,8.37,0,0,0,6.54,3.5c5.12,0,9.26-5.34,9.26-12a13.82,13.82,0,0,0-2.71-8.43,7.87,7.87,0,0,0-13.09,0,13.82,13.82,0,0,0-2.72,8.43"/><path class="cls-1" d="M182.25,51.46H59c-19.54,0-18.52,44.36-1,44.45l124.26.75c19.86.11,19.54-45.2,0-45.2"/><path class="cls-1" d="M93.17,90.82c-19.54,0-18.51,35-1,35.09l14.14.07,0-7.52a3.31,3.31,0,0,1,3.32-3.3l70.85.2a3.3,3.3,0,0,1,2.35,1,3.34,3.34,0,0,1,1,2.36l-.06,7.66,32.68.14c19.86.09,19.54-35.68,0-35.68Zm19.81,31V126l64.19.3,0-4.34L113,121.8"/><path class="cls-1" d="M44,114.79a15.55,15.55,0,0,0-5.67,1l55.75,33.77H106.3l.06-31.11a3.31,3.31,0,0,1,3.32-3.3l70.85.2a3.3,3.3,0,0,1,2.35,1,3.34,3.34,0,0,1,1,2.36l-.22,30.87h32.14c3.73-14.93-2.17-34.78-17.41-34.78Zm-6.41,1.32C20,124,23,164.83,42.81,164.94l40.62.22L31.66,133.8a.45.45,0,0,1-.17-.55ZM113,121.8l-.06,27.77H177l.19-27.59L113,121.8"/><path class="cls-1" d="M54.77,157.36c-21,0-19.93,74.52-1.05,74.52l133.68,0c15.9.14,19.78-41.17,12.07-62.35H148.73L181.59,205a8.5,8.5,0,0,1,.87-.07,7,7,0,0,1,5.35,2.66A10,10,0,0,1,190,214c0,5-3.39,9.06-7.57,9.06s-7.58-4.06-7.58-9.06a10,10,0,0,1,2.5-6.72l-35-37.72H138l-35.32,38.08a10.23,10.23,0,0,1,1.64,5.62c0,5-3.39,9.06-7.57,9.06a7,7,0,0,1-5.35-2.65,10.36,10.36,0,0,1,0-12.82,7,7,0,0,1,5.35-2.65,6.49,6.49,0,0,1,2.37.46l32.55-35.1H90.7a.35.35,0,0,1-.29-.18l-19.86-12H54.77"/><path class="cls-1" d="M27.43,141.46H11.15c-2.58,0-2.44,17.58-.13,17.61l16.41.31c2.62,0,2.58-17.92,0-17.92"/><path class="cls-1" d="M12.73,200.59A12.82,12.82,0,0,0,15.8,209a9.9,9.9,0,0,0,7.41,3.49c5.79,0,10.48-5.34,10.48-11.94S29,188.66,23.21,188.66a9.88,9.88,0,0,0-7.41,3.5,12.77,12.77,0,0,0-3.07,8.43"/></svg>