<svg id="Layer_1" data-name="Layer 1" xmlns="http://www.w3.org/2000/svg" viewBox="0 0 233.79 237.15"><defs><style>.cls-1{fill:#f55;}</style></defs><title>readiografias</title><path class="cls-1" d="M39.48,53.53a7.13,7.13,0,0,0-6,3.09,6.22,6.22,0,0,0-.92,1.79,7,7,0,0,0-.35,1.32c-.1.57-.13.93-.17,1.36-.08.84-.14,1.8-.19,3-.11,2.41-.18,5.62-.2,9.27,0,7.3.14,16.21.85,23.32.07.73-.37,2.8-2.2,5.83a105.46,105.46,0,0,1-8.09,10.81c-6.62,8.11-14.85,17.43-18,29.16C.65,155.69.75,173.8,1.41,189.23c.65,15.2,2,27.34,2.07,27.7a7.86,7.86,0,0,0,8.08,7.76h203a7.87,7.87,0,0,0,8.08-7.71c.07-.5,1.58-11.64,2.56-25.75,1-14.43,1.6-31.45-1.07-44-2.54-11.95-10-21.79-15.94-30.45s-9.67-16-9.29-19.57c1.48-13.93-.08-36-.08-36a7.24,7.24,0,0,0-7.19-6.78Zm6.78,14.54,138.39.82c.3,7.47.61,19.41-.17,26.75-1.21,11.41,5.67,20.45,11.76,29.32s12.11,17.7,13.71,25.25c2,9.29,1.75,26.09.79,40-.63,9-1.35,15.55-1.88,20H17.39c-.46-4.68-1.08-11.74-1.5-21.59-.63-14.85-.28-32.73,2.31-42.35,1.9-7.05,8.55-15.56,15.24-23.75A110,110,0,0,0,42.7,110c2.61-4.31,4.79-9.12,4.22-14.76-.61-6.14-.8-14.82-.77-21.81,0-2.16.07-3.66.11-5.37"/><path class="cls-1" d="M114.67,94.61a45,45,0,1,0,45,45A45,45,0,0,0,114.67,94.61Zm18.57,12c11.3.09,19.58,15,7.7,26.27l-5.79,5.46,7.47,6.84c15.78,14.45-3,35.86-18.31,21.8l-9.84-9-9.59,9c-15.13,14.3-34.19-6.79-18.61-21.5l7.24-6.84-5.74-5.25c-12.33-11.3-3.58-26.84,8.14-26.39a15.88,15.88,0,0,1,10.16,4.57l8.12,7.43,8.13-7.68a15.86,15.86,0,0,1,10.1-4.73C132.69,106.57,133,106.57,133.24,106.57Zm3.77,2.27a2,2,0,0,0-.57.26.32.32,0,0,0-.13.38c0,.12.17.28.41.36a.64.64,0,0,0,.41.09c0,.14,0,.28,0,.41a.68.68,0,0,0,.3.48.34.34,0,0,0,.37-.09,1.54,1.54,0,0,0,.36-.54,5.16,5.16,0,0,0,.13-.74v-.51c-.19,0-.25-.08-.5-.08H137Zm-46.41.48c-.23,0-.29.09-.48.09,0,.19,0,.27,0,.52a1.32,1.32,0,0,0,.07.32c0,.14,0,.28.08.41a1.4,1.4,0,0,0,.36.53c.13.08.25.16.37.08a.65.65,0,0,0,.29-.49c0-.12,0-.27,0-.42h.37c.22-.08.4-.25.4-.38a.34.34,0,0,0-.14-.37,2,2,0,0,0-.58-.26h-.73Zm42,.73a1.51,1.51,0,0,0-.57.27.3.3,0,0,0-.13.36c0,.12.17.28.42.37a.74.74,0,0,0,.4.07,3.26,3.26,0,0,0-.05.41.62.62,0,0,0,.3.47.29.29,0,0,0,.37-.07,1.41,1.41,0,0,0,.36-.54,4.29,4.29,0,0,0,.14-.73v-.52c-.19,0-.25-.09-.5-.09ZM95,110.46c-.24,0-.3.09-.49.09v.52a1,1,0,0,0,.07.3h0c0,.14,0,.29.08.41a1.64,1.64,0,0,0,.36.54c.12.09.25.16.37.09a.68.68,0,0,0,.29-.5,3.32,3.32,0,0,0,0-.43h.37c.24-.07.41-.25.41-.39s0-.24-.14-.34a2.17,2.17,0,0,0-.57-.27H95Zm44.29,1.22a1.89,1.89,0,0,0-.57.27.32.32,0,0,0-.13.37c0,.13.17.29.41.37a.71.71,0,0,0,.41.08,3.5,3.5,0,0,0,0,.41.65.65,0,0,0,.29.48.32.32,0,0,0,.38-.07,1.88,1.88,0,0,0,.36-.54,4.52,4.52,0,0,0,.13-.75v-.52c-.19,0-.25-.08-.5-.08h-.73Zm-11.31.21a2.17,2.17,0,0,0-.57.27.31.31,0,0,0-.14.37c0,.13.18.29.42.38h.41c0,.16-.06.34-.06.46a.65.65,0,0,0,.3.48.31.31,0,0,0,.38-.08,1.53,1.53,0,0,0,.35-.54,4.29,4.29,0,0,0,.14-.73V112c-.19,0-.25-.07-.49-.07H128Zm-39.69.34c-.24,0-.3.09-.49.09,0,.19,0,.25,0,.52a1,1,0,0,0,.07.3h0c0,.14,0,.29.08.41a1.64,1.64,0,0,0,.36.54c.12.07.24.16.37.07a.64.64,0,0,0,.29-.48,3.32,3.32,0,0,0,0-.43h.37c.24-.07.41-.25.41-.39a.32.32,0,0,0-.14-.36,1.68,1.68,0,0,0-.57-.25h-.74Zm11.3,0c-.23,0-.29.09-.48.09,0,.19,0,.25,0,.5a1.8,1.8,0,0,0,.06.32h0c0,.14,0,.27.08.41a1.82,1.82,0,0,0,.36.52c.13.09.25.16.37.09a.67.67,0,0,0,.29-.49c0-.12,0-.28,0-.44h.35c.23-.07.41-.24.41-.38a.32.32,0,0,0-.14-.36,2.57,2.57,0,0,0-.57-.26h-.74Zm35.29.66h0a2.17,2.17,0,0,0-.57.27.32.32,0,0,0-.13.37c0,.13.17.29.41.38H135c0,.16,0,.32,0,.46a.62.62,0,0,0,.3.46c.13.08.25,0,.37-.08a1.53,1.53,0,0,0,.35-.54,4.29,4.29,0,0,0,.15-.73V113c-.2,0-.25-.07-.5-.07Zm-42.15.45c-.25,0-.31.07-.5.08,0,.2,0,.27,0,.52a1,1,0,0,0,.07.3h0c0,.15.05.29.09.42a1.44,1.44,0,0,0,.36.52c.12.08.24.16.37.08a.65.65,0,0,0,.28-.48,3.19,3.19,0,0,0,0-.43h.36c.24-.07.41-.25.41-.39s0-.23-.14-.34a1.51,1.51,0,0,0-.57-.27h-.73Zm48.88,1.14a2.17,2.17,0,0,0-.57.27.33.33,0,0,0-.14.37c0,.13.18.29.42.37h.37c0,.17,0,.33,0,.47a.66.66,0,0,0,.29.47.33.33,0,0,0,.38-.08,1.33,1.33,0,0,0,.35-.53,4.52,4.52,0,0,0,.14-.75v-.5c-.19,0-.25-.09-.5-.09Zm-11.3.23a1.59,1.59,0,0,0-.57.27.29.29,0,0,0-.14.36c0,.14.18.3.42.37a.58.58,0,0,0,.39.09c0,.13,0,.28,0,.41a.7.7,0,0,0,.3.47.33.33,0,0,0,.38-.08,1.44,1.44,0,0,0,.35-.53,3.68,3.68,0,0,0,.14-.75v-.52c-.19,0-.24-.07-.49-.07h-.73Zm-44.29.32c-.25,0-.3.09-.5.09v.52a3.51,3.51,0,0,0,.16.73,1.7,1.7,0,0,0,.36.54c.13.07.25.14.37.07a.63.63,0,0,0,.29-.49c0-.12,0-.28,0-.42h.37c.23-.09.4-.25.4-.39a.33.33,0,0,0-.14-.36,1.6,1.6,0,0,0-.57-.25h-.73Zm11.31.07c-.25,0-.31.09-.5.09,0,.2,0,.27,0,.52a2.58,2.58,0,0,0,.16.73,1.41,1.41,0,0,0,.36.54c.12.07.24.16.37.07a.64.64,0,0,0,.29-.48,3.32,3.32,0,0,0,0-.43h.38c.23-.07.4-.23.4-.39a.3.3,0,0,0-.14-.34,1.78,1.78,0,0,0-.57-.27h-.74Zm39.9.86a2,2,0,0,0-.57.27.3.3,0,0,0-.14.36c0,.15.18.3.42.39a.72.72,0,0,0,.39.07c0,.14,0,.29,0,.41a.64.64,0,0,0,.3.48.32.32,0,0,0,.37-.07,1.49,1.49,0,0,0,.35-.55,3.59,3.59,0,0,0,.14-.74v-.51c-.18,0-.24-.08-.49-.08h-.73Zm-46.8.53c-.25,0-.31.08-.5.08v.52a1.14,1.14,0,0,0,.07.32c0,.16,0,.3.08.42a2,2,0,0,0,.36.54c.13.07.25.16.38.07a.63.63,0,0,0,.28-.48,3.12,3.12,0,0,0,0-.43h.37c.23-.09.4-.25.4-.39a.32.32,0,0,0-.13-.36,1.74,1.74,0,0,0-.58-.25h-.72Zm53.5.83a1.68,1.68,0,0,0-.57.25.32.32,0,0,0-.13.37c0,.13.17.29.41.38a.74.74,0,0,0,.4.07,4.09,4.09,0,0,0-.05.41.61.61,0,0,0,.3.48.31.31,0,0,0,.37-.07,2,2,0,0,0,.36-.55,4.22,4.22,0,0,0,.14-.74v-.51c-.19,0-.25-.08-.5-.08H144Zm-11.28.1a1.89,1.89,0,0,0-.57.27.33.33,0,0,0-.13.38c0,.12.17.28.41.36a.71.71,0,0,0,.41.08,3.5,3.5,0,0,0-.05.41.71.71,0,0,0,.29.49.35.35,0,0,0,.38-.09,1.41,1.41,0,0,0,.36-.54,4.28,4.28,0,0,0,.13-.73v-.52c-.19,0-.24-.07-.49-.07h-.74Zm-37.64.47c-.24,0-.3.09-.49.09a4.54,4.54,0,0,0,0,.51,1,1,0,0,0,.07.31h0c0,.14.06.28.09.41a1.52,1.52,0,0,0,.35.53c.13.08.25.17.37.08a.64.64,0,0,0,.3-.49c0-.12,0-.26,0-.42h.35c.25-.09.42-.25.42-.38a.34.34,0,0,0-.14-.37,1.68,1.68,0,0,0-.57-.25h-.73c-.25,0-.31.07-.5.07v.52a1.14,1.14,0,0,0,.07.32c0,.16.05.3.07.42a1.6,1.6,0,0,0,.37.54c.12.07.24.15.37.07a.64.64,0,0,0,.29-.48c0-.14,0-.28,0-.44h.36c.25-.08.42-.24.42-.38a.32.32,0,0,0-.14-.36,1.9,1.9,0,0,0-.57-.26h-.73Zm55.81.91a1.49,1.49,0,0,0-.58.27.29.29,0,0,0-.13.35c0,.15.18.29.42.38h.37c0,.16,0,.34,0,.46a.6.6,0,0,0,.3.48.31.31,0,0,0,.37-.08,1.3,1.3,0,0,0,.35-.54,3.94,3.94,0,0,0,.14-.73v-.52c-.19,0-.25-.07-.49-.07Zm-51.41.57c-.24,0-.3.09-.49.09,0,.2,0,.25,0,.52a1.28,1.28,0,0,0,.07.3h0c0,.13.06.27.09.39a1.41,1.41,0,0,0,.36.54c.12.07.25.16.37.07a.67.67,0,0,0,.29-.48,3.32,3.32,0,0,0,0-.43h.35c.24-.07.42-.23.42-.39a.3.3,0,0,0-.15-.34,1.68,1.68,0,0,0-.57-.27Zm47.17.93a2.09,2.09,0,0,0-.56.27.31.31,0,0,0-.14.37c0,.13.18.29.42.38a.75.75,0,0,0,.4.07,3.26,3.26,0,0,0-.05.41.63.63,0,0,0,.3.48.33.33,0,0,0,.38-.07,1.8,1.8,0,0,0,.35-.55,4.07,4.07,0,0,0,.13-.74v-.51c-.19,0-.25-.08-.49-.08h-.74Zm-42.92.52c-.24,0-.3.09-.49.09,0,.21,0,.26,0,.52a1.41,1.41,0,0,0,.07.31q0,.22.09.42a1.49,1.49,0,0,0,.36.52c.12.08.25.16.37.08a.66.66,0,0,0,.29-.48,3.55,3.55,0,0,0,0-.44h.36c.24-.08.41-.24.41-.38s0-.25-.14-.36a1.79,1.79,0,0,0-.57-.26h-.74Zm49.51.66a2.17,2.17,0,0,0-.57.27c-.13.12-.19.23-.13.37s.17.29.41.36a.64.64,0,0,0,.41.09,3.5,3.5,0,0,0-.05.41.68.68,0,0,0,.3.48.31.31,0,0,0,.37-.09,1.41,1.41,0,0,0,.36-.54,5.42,5.42,0,0,0,.13-.74v-.5c-.19,0-.25-.08-.5-.08h-.73Zm-56.07.62a4.56,4.56,0,0,0-.49.08v.53a3,3,0,0,0,.15.72,1.62,1.62,0,0,0,.35.53c.13.09.25.16.38.09a.67.67,0,0,0,.28-.48,3.09,3.09,0,0,0,0-.43h.39c.22-.09.39-.25.39-.39a.3.3,0,0,0-.14-.36,1.6,1.6,0,0,0-.57-.25h-.73Zm51.8,1.06a1.83,1.83,0,0,0-.56.26.32.32,0,0,0-.14.38c0,.12.17.28.41.36a.71.71,0,0,0,.41.08,3.41,3.41,0,0,0-.05.42.68.68,0,0,0,.29.48.34.34,0,0,0,.37-.09,1.5,1.5,0,0,0,.36-.54,4.29,4.29,0,0,0,.14-.73v-.52c-.19,0-.25-.08-.5-.08h-.73Zm-23.24.25-.14.12c-.74.68-4.29,4.25-7.84,7.86l0,0,0,0c-4,4.05-7.35,7.73-7.37,7.75l8.85,8.11,5.84,5.37a.17.17,0,0,0,.25,0l5.72-5.87h0l9.38-9.6a.27.27,0,0,0,.08-.13.16.16,0,0,0-.08-.12l-6.12-5.61-.38-.37h0Zm-24.27.28a2.7,2.7,0,0,0-.49.09c0,.2,0,.27,0,.52a3.5,3.5,0,0,0,.15.73,1.53,1.53,0,0,0,.35.54c.13.07.25.16.37.07a.64.64,0,0,0,.3-.48,3.32,3.32,0,0,0,0-.43h.39c.22-.07.39-.23.39-.38s0-.25-.14-.36a2.57,2.57,0,0,0-.57-.26h-.74Zm49.63,2.36a2.17,2.17,0,0,0-.57.27.32.32,0,0,0-.13.37c0,.13.17.29.41.38a.79.79,0,0,0,.41.07,3.26,3.26,0,0,0-.05.41.64.64,0,0,0,.3.48.31.31,0,0,0,.37-.07,1.63,1.63,0,0,0,.35-.55,3.47,3.47,0,0,0,.15-.74v-.51c-.19,0-.25-.09-.5-.09h-.74Zm-51.7.59c-.25,0-.31.09-.5.09,0,.19,0,.25,0,.5A3.69,3.69,0,0,0,99,128a1.64,1.64,0,0,0,.36.52c.12.08.25.16.37.08a.66.66,0,0,0,.29-.48,3.55,3.55,0,0,0,0-.44h.39c.22-.08.39-.24.39-.38a.32.32,0,0,0-.14-.36,2.18,2.18,0,0,0-.57-.26h-.73Zm21.6,6.21a4.92,4.92,0,0,1,2.63.89,9.87,9.87,0,0,1,1.85,1.77,10.49,10.49,0,0,1,2-1.5,4.71,4.71,0,0,1,2.14-.59l0,0a3.47,3.47,0,0,1,1.66.32,2,2,0,0,1,1.1,2.25,8.85,8.85,0,0,1-1.45,3.88,15.26,15.26,0,0,1-3.41,3.55c-1.31,1-1.82,1.07-2.78,2v0c-.83-1-1.32-1.09-2.48-2.29a15.17,15.17,0,0,1-2.86-3.85l2.12.07.72,1.27.36-1.25.09.39.49-.37,1,.09.42-1.36v0l0,0,.22,3.37,1.19-2h.45v0l1.15.06v-.35l-1.68-.07h-.14l-.67,1.14v0l-.21-3.23-.4-.07V137l-.61,2h0l0,.12-.77-.09-.11.09-.12-.55h-.39l-.33,1.08-.06-.09-.16-.3-.13-.23-2.51-.09a8.41,8.41,0,0,1-.78-3.75,2.08,2.08,0,0,1,1.4-2.09,2.52,2.52,0,0,1,.77-.14v0Zm32.68,16.91s-.08,0-.11,0a.65.65,0,0,0-.31.48c0,.11,0,.27.05.4-.14,0-.28.08-.4.08s-.42.24-.42.38a.33.33,0,0,0,.13.36,1.45,1.45,0,0,0,.57.28h.72c.25,0,.31-.07.5-.07,0-.21,0-.27,0-.53a1.46,1.46,0,0,0-.13-.74,1.33,1.33,0,0,0-.35-.53c-.06,0-.12-.11-.18-.11h0A.06.06,0,0,0,153.64,149.78Zm-55.86.36a.35.35,0,0,0-.18.11,1.67,1.67,0,0,0-.34.55,1.74,1.74,0,0,0-.12.75v.52c.19,0,.25.07.49.07a2.62,2.62,0,0,0,.74-.07,2.07,2.07,0,0,0,.56-.29.33.33,0,0,0,.12-.37c0-.13-.18-.27-.42-.36a.74.74,0,0,0-.4-.07c0-.13,0-.25,0-.36a.63.63,0,0,0-.31-.46.54.54,0,0,0-.18,0Zm53.59,2.55a.62.62,0,0,0-.3.49c0,.1,0,.26,0,.41-.14,0-.28.07-.4.07s-.42.25-.42.37a.36.36,0,0,0,.14.38,2.25,2.25,0,0,0,.56.27h.73c.25,0,.31-.09.5-.09,0-.18,0-.25,0-.5a1.46,1.46,0,0,0-.13-.75,1.53,1.53,0,0,0-.35-.54c-.06,0-.12-.11-.19-.11ZM100,153a.35.35,0,0,0-.18.11,1.86,1.86,0,0,0-.33.55,1.7,1.7,0,0,0-.13.74v.53c.2,0,.25.07.5.07a2.52,2.52,0,0,0,.73-.07,1.93,1.93,0,0,0,.56-.3.31.31,0,0,0,.13-.36c0-.14-.19-.29-.42-.37h-.42c0-.13,0-.27,0-.4A.4.4,0,0,0,100,153Zm55.77,1.41s-.08,0-.12,0a.63.63,0,0,0-.3.48c0,.11,0,.27.05.41-.15,0-.29.07-.41.07s-.41.24-.41.38a.33.33,0,0,0,.13.36,1.72,1.72,0,0,0,.56.28H156c.25,0,.31-.09.5-.09,0-.19,0-.25,0-.5a1.44,1.44,0,0,0-.13-.75,1.53,1.53,0,0,0-.35-.54c-.06,0-.12-.1-.18-.1h0S155.77,154.36,155.74,154.37Zm-60,.38a.29.29,0,0,0-.19.11,1.86,1.86,0,0,0-.33.55,1.74,1.74,0,0,0-.12.75v.52c.19,0,.25.07.5.07h.29c.15-.07.3,0,.43-.07a2,2,0,0,0,.57-.29A.34.34,0,0,0,97,156c0-.13-.19-.29-.43-.36a2.55,2.55,0,0,0-.4,0c0-.14,0-.28,0-.39a.69.69,0,0,0-.31-.48h-.18Zm53.47.77v0H149a.61.61,0,0,0-.31.46,4.66,4.66,0,0,0,.06.47h-.41c-.24.07-.42.25-.42.38a.35.35,0,0,0,.13.37,1.59,1.59,0,0,0,.57.27h.73c.24,0,.3-.07.49-.07,0-.2,0-.27,0-.52a1.38,1.38,0,0,0-.13-.73,1.36,1.36,0,0,0-.35-.54c-.06,0-.12-.13-.18-.13Zm-46.72.25h-.14a.35.35,0,0,0-.18.11,1.51,1.51,0,0,0-.33.55,1.59,1.59,0,0,0-.13.74v.52c.19,0,.25.08.5.08a2.22,2.22,0,0,0,.73-.08,1.82,1.82,0,0,0,.56-.29c.12-.11.18-.23.12-.36s-.18-.29-.41-.37a.69.69,0,0,0-.4-.08c0-.12,0-.25,0-.35a.64.64,0,0,0-.3-.47Zm50.94,1.33h-.19a.72.72,0,0,0-.3.49c0,.11,0,.26.05.41-.15,0-.29.07-.41.07s-.42.25-.42.37a.36.36,0,0,0,.13.38,1.68,1.68,0,0,0,.57.27h.72c.25,0,.31-.08.5-.08,0-.19,0-.26,0-.51a1.49,1.49,0,0,0-.13-.75,1.57,1.57,0,0,0-.34-.54c-.06,0-.12-.11-.18-.11Zm-55.27.33a.26.26,0,0,0-.19.12,1.57,1.57,0,0,0-.33.54,1.74,1.74,0,0,0-.12.75v.51c.19,0,.25.08.5.08a2.16,2.16,0,0,0,.72-.08,1.78,1.78,0,0,0,.57-.28.33.33,0,0,0,.12-.37c0-.13-.18-.29-.42-.36a.63.63,0,0,0-.4-.09c0-.11,0-.24,0-.34a.69.69,0,0,0-.3-.48Zm48.36,1h-.19a.67.67,0,0,0-.3.47,4.16,4.16,0,0,0,.06.46,3.17,3.17,0,0,1-.42,0c-.23.07-.41.23-.41.37a.32.32,0,0,0,.13.36,1.93,1.93,0,0,0,.56.29h.73c.25,0,.31-.09.5-.09,0-.2,0-.25,0-.5a1.46,1.46,0,0,0-.13-.75,1.53,1.53,0,0,0-.35-.54c-.06,0-.12-.1-.18-.1Zm11.2.21-.12,0a.68.68,0,0,0-.3.48c0,.12,0,.27,0,.41-.15,0-.29.09-.4.09s-.42.23-.42.36a.34.34,0,0,0,.14.37,1.93,1.93,0,0,0,.56.29H158c.25,0,.3-.09.49-.09a5.17,5.17,0,0,1,0-.52,1.33,1.33,0,0,0-.14-.73,1.39,1.39,0,0,0-.34-.54c-.06,0-.12-.12-.19-.12h0A.1.1,0,0,0,157.73,158.64Zm-52.65,0a.28.28,0,0,0-.18.11,1.73,1.73,0,0,0-.33.55,1.67,1.67,0,0,0-.12.75v.5c.19,0,.25.09.49.09a2,2,0,0,0,.73-.09,1.52,1.52,0,0,0,.57-.28.31.31,0,0,0,.12-.36c0-.14-.18-.29-.42-.36a.61.61,0,0,0-.4-.09c0-.12,0-.25,0-.35a.67.67,0,0,0-.3-.47ZM94,159.07l-.14,0a.22.22,0,0,0-.19.1,1.62,1.62,0,0,0-.33.56,1.49,1.49,0,0,0-.13.73V161c.19,0,.25.07.5.07H94c.14-.07.3,0,.43-.07a1.71,1.71,0,0,0,.56-.3.3.3,0,0,0,.13-.36c0-.14-.18-.29-.42-.36a.63.63,0,0,0-.4-.09c0-.12,0-.23,0-.34a.61.61,0,0,0-.31-.46Zm57,.82s-.07,0-.11,0a.64.64,0,0,0-.3.48c0,.11,0,.27,0,.41-.15,0-.29.07-.4.07s-.42.25-.42.38a.35.35,0,0,0,.13.37,1.68,1.68,0,0,0,.57.27h.72c.25,0,.31-.07.5-.07,0-.2,0-.27,0-.52a1.38,1.38,0,0,0-.13-.73,1.57,1.57,0,0,0-.34-.54c-.07,0-.13-.12-.19-.12h0s0,0-.06,0Zm-50.46.31c-.06,0-.12,0-.18.12a1.61,1.61,0,0,0-.33.54,1.59,1.59,0,0,0-.13.75v.51c.19,0,.25.08.5.08a2.25,2.25,0,0,0,.73-.08,1.54,1.54,0,0,0,.56-.28.31.31,0,0,0,.13-.36c0-.14-.19-.29-.43-.37H101a3.26,3.26,0,0,0,.05-.41.63.63,0,0,0-.3-.46.6.6,0,0,0-.19,0Zm43.53.9s-.08,0-.12,0a.6.6,0,0,0-.3.47,4.16,4.16,0,0,0,.06.46,3.17,3.17,0,0,1-.42,0c-.23.07-.42.23-.42.36a.34.34,0,0,0,.14.37,1.54,1.54,0,0,0,.56.27h.73c.25,0,.31-.07.5-.07,0-.2,0-.27,0-.52a1.42,1.42,0,0,0-.13-.73,2,2,0,0,0-.35-.54c-.06,0-.12-.11-.19-.11v0a.07.07,0,0,0-.07,0Zm-36.58.2a.26.26,0,0,0-.18.11,1.61,1.61,0,0,0-.33.54,1.72,1.72,0,0,0-.12.75v.51c.19,0,.25.09.49.09a2,2,0,0,0,.73-.09,1.4,1.4,0,0,0,.56-.28.31.31,0,0,0,.13-.36c0-.14-.18-.29-.42-.37a.71.71,0,0,0-.41-.08c0-.12,0-.25,0-.35a.67.67,0,0,0-.3-.47Zm47.88.2-.12,0a.69.69,0,0,0-.3.48c0,.14,0,.3,0,.46h-.4c-.24.09-.42.24-.42.38a.33.33,0,0,0,.13.36,1.4,1.4,0,0,0,.56.28h.73c.25,0,.31-.07.5-.07,0-.21,0-.27,0-.52a1.49,1.49,0,0,0-.13-.75,1.74,1.74,0,0,0-.35-.54c-.06,0-.12-.1-.18-.1v0a.1.1,0,0,0-.07,0Zm-59.18.32a.33.33,0,0,0-.17.12,1.39,1.39,0,0,0-.34.54,1.74,1.74,0,0,0-.12.75v.52c.19,0,.25.07.5.07a2.45,2.45,0,0,0,.72-.07,2,2,0,0,0,.57-.29.33.33,0,0,0,.12-.37c0-.13-.18-.27-.42-.36h-.41c0-.14,0-.29,0-.41a.66.66,0,0,0-.31-.46.6.6,0,0,0-.19,0ZM148.64,163a.28.28,0,0,1-.12,0,.66.66,0,0,0-.3.48,3.77,3.77,0,0,0,.05.41c-.15,0-.29.09-.4.09s-.43.23-.43.36a.34.34,0,0,0,.14.37,1.54,1.54,0,0,0,.56.27h.73c.25,0,.31-.07.5-.07,0-.2,0-.27,0-.52a1.33,1.33,0,0,0-.14-.73,1.24,1.24,0,0,0-.35-.54c-.06,0-.12-.12-.18-.12A.13.13,0,0,0,148.64,163Zm-45.52.29a.75.75,0,0,0-.15,0c-.06,0-.12,0-.18.12a1.67,1.67,0,0,0-.33.54,1.6,1.6,0,0,0-.12.75v.51c.19,0,.24.08.49.08h.31c.14-.08.29,0,.42-.08a1.89,1.89,0,0,0,.57-.28.32.32,0,0,0,.12-.36c0-.14-.18-.29-.42-.37a.64.64,0,0,0-.39-.08c0-.12,0-.26,0-.35a.69.69,0,0,0-.3-.48Zm38.5.67a.69.69,0,0,0-.3.49c0,.12,0,.26.05.41-.15,0-.29.07-.41.07s-.42.25-.42.39a.34.34,0,0,0,.13.36,2.17,2.17,0,0,0,.57.27H142c.25,0,.31-.08.5-.08v-.51a1.49,1.49,0,0,0-.13-.75,1.39,1.39,0,0,0-.35-.52c-.06,0-.12-.12-.18-.12h-.19Zm-31.59.15h-.14a.35.35,0,0,0-.19.11,1.66,1.66,0,0,0-.32.55,1.61,1.61,0,0,0-.13.75V166c.19,0,.25.08.5.08a2.22,2.22,0,0,0,.73-.08,1.72,1.72,0,0,0,.56-.28.32.32,0,0,0,.13-.37c0-.13-.19-.27-.43-.36a.72.72,0,0,0-.39-.07c0-.13,0-.27,0-.36a.68.68,0,0,0-.3-.48Zm43.09.17v0h-.19a.62.62,0,0,0-.3.47,4.16,4.16,0,0,0,.06.46c-.15,0-.31-.07-.43,0s-.41.25-.41.37a.35.35,0,0,0,.13.38,1.54,1.54,0,0,0,.56.27h.73c.25,0,.31-.07.5-.07,0-.2,0-.27,0-.52a1.49,1.49,0,0,0-.13-.75,1.4,1.4,0,0,0-.35-.54C153.24,164.34,153.19,164.26,153.12,164.26Zm-54.53.33a.24.24,0,0,0-.18.1,1.92,1.92,0,0,0-.33.56A1.57,1.57,0,0,0,98,166v.5c.19,0,.25.09.5.09a2,2,0,0,0,.73-.09,1.54,1.54,0,0,0,.56-.27.33.33,0,0,0,.13-.38c0-.12-.18-.28-.42-.35a.64.64,0,0,0-.41-.09c0-.11,0-.25,0-.34a.67.67,0,0,0-.3-.48Zm47.7,1.25-.12,0a.66.66,0,0,0-.3.48c0,.14,0,.3,0,.46a3,3,0,0,1-.41,0c-.24.07-.42.23-.42.36a.35.35,0,0,0,.13.37,1.68,1.68,0,0,0,.57.27h.74c.24,0,.3-.07.49-.07,0-.2,0-.27,0-.52a1.38,1.38,0,0,0-.13-.73,1.74,1.74,0,0,0-.35-.55c-.06,0-.12-.11-.18-.11v0S146.31,165.82,146.29,165.84Zm-40.92.19a.34.34,0,0,0-.19.11,1.67,1.67,0,0,0-.33.55,1.59,1.59,0,0,0-.13.74V168c.19,0,.25.08.5.08A2.22,2.22,0,0,0,106,168a1.54,1.54,0,0,0,.56-.29c.12-.11.18-.23.12-.36s-.18-.29-.41-.37h-.41c0-.13,0-.27,0-.4a.63.63,0,0,0-.31-.46.61.61,0,0,0-.19,0Zm45.41,1.06h-.2a.68.68,0,0,0-.3.48c0,.12,0,.27.05.41-.15,0-.3.07-.42.07s-.41.25-.41.38a.35.35,0,0,0,.13.37,1.62,1.62,0,0,0,.56.27h.74c.24,0,.3-.07.49-.07a5,5,0,0,1,0-.52,1.4,1.4,0,0,0-.14-.75,1.57,1.57,0,0,0-.34-.54c-.06,0-.12-.1-.18-.1Zm-49.67.3H101a.32.32,0,0,0-.18.12,1.57,1.57,0,0,0-.34.54,1.74,1.74,0,0,0-.12.75v.52c.19,0,.25.07.5.07a1.4,1.4,0,0,0,.29,0h0a.89.89,0,0,0,.42-.07,1.83,1.83,0,0,0,.56-.3.31.31,0,0,0,.12-.36c0-.14-.18-.3-.42-.38a.67.67,0,0,0-.4-.08c0-.11,0-.24,0-.34a.68.68,0,0,0-.31-.47h0"/><path class="cls-1" d="M113.72-.31A88.09,88.09,0,0,0,84,5.68a95.58,95.58,0,0,0-9.29,4.07c-1.13.57-2,1.05-2.72,1.44-.35.2-.63.36-.92.56s-.29.18-.54.36-.27.19-.56.44-.82-.54-2.08,3.09c-3,8.66-2.62,19.16-2.05,28.25s1.73,16.52,1.73,16.52l-.09-1.11a8.31,8.31,0,0,0,8.18,8.34h76.87a8.31,8.31,0,0,0,8.18-8.34l-.09,1.11s1.15-7.43,1.73-16.52,1-19.59-2.05-28.25a8.06,8.06,0,0,0-1.18-2.43,9.11,9.11,0,0,0-3.74-2.87l.35.07S134.56-.54,113.72-.31Zm.16,14.49c12.81-.13,28.36,6.17,33.27,8.3,1,4.82,1.2,13.29.74,20.48-.25,3.95-.61,7.48-.93,10.2H81.25c-.32-2.72-.68-6.25-.93-10.2-.45-7-.23-15.28.68-20.14l.24-.13a82.62,82.62,0,0,1,7.89-3.44C95.78,16.75,104.79,14.28,113.88,14.18Zm32.74,6.23s0,.09,0,.14c-.06-.16-.05-.19,0-.14"/></svg>