<?xml version="1.0" encoding="UTF-8"?>
<svg xmlns="http://www.w3.org/2000/svg" xmlns:xlink="http://www.w3.org/1999/xlink" width="2500" height="2500" viewBox="0 0 2500 2500">
<path fill-rule="evenodd" fill="rgb(83.789062%, 83.789062%, 83.789062%)" fill-opacity="1" d="M 1080.121094 395.960938 C 1108.820312 344.589844 1175.078125 304.640625 1250 304.640625 C 1324.921875 304.640625 1391.179688 344.589844 1419.878906 395.960938 C 1466.050781 359.480469 1542.550781 347.929688 1611.769531 376.601562 C 1680.988281 405.269531 1726.921875 467.539062 1733.769531 525.980469 C 1790.390625 509.941406 1865.488281 528.550781 1918.46875 581.53125 C 1971.449219 634.511719 1990.058594 709.609375 1974.019531 766.230469 C 2032.460938 773.078125 2094.730469 819.011719 2123.398438 888.230469 C 2152.070312 957.449219 2140.519531 1033.949219 2104.039062 1080.121094 C 2155.410156 1108.820312 2195.359375 1175.078125 2195.359375 1250 C 2195.359375 1324.921875 2155.410156 1391.179688 2104.039062 1419.878906 C 2140.519531 1466.050781 2152.070312 1542.554688 2123.398438 1611.773438 C 2094.730469 1680.992188 2032.460938 1726.921875 1974.019531 1733.773438 C 1990.058594 1790.390625 1971.449219 1865.492188 1918.46875 1918.472656 C 1865.488281 1971.449219 1790.390625 1990.054688 1733.769531 1974.019531 C 1726.921875 2032.464844 1680.988281 2094.730469 1611.769531 2123.398438 C 1542.550781 2152.070312 1466.050781 2140.519531 1419.878906 2104.039062 C 1391.179688 2155.410156 1324.921875 2195.363281 1250 2195.363281 C 1175.078125 2195.363281 1108.820312 2155.410156 1080.121094 2104.039062 C 1033.949219 2140.519531 957.445312 2152.070312 888.226562 2123.398438 C 819.007812 2094.730469 773.078125 2032.464844 766.226562 1974.019531 C 709.609375 1990.054688 634.507812 1971.449219 581.527344 1918.472656 C 528.550781 1865.492188 509.945312 1790.390625 525.980469 1733.773438 C 467.535156 1726.921875 405.269531 1680.992188 376.601562 1611.773438 C 347.929688 1542.554688 359.480469 1466.050781 395.960938 1419.878906 C 344.589844 1391.179688 304.636719 1324.921875 304.636719 1250 C 304.636719 1175.078125 344.589844 1108.820312 395.960938 1080.121094 C 359.480469 1033.949219 347.929688 957.449219 376.601562 888.230469 C 405.269531 819.011719 467.535156 773.078125 525.980469 766.230469 C 509.945312 709.609375 528.550781 634.511719 581.527344 581.53125 C 634.507812 528.550781 709.609375 509.941406 766.226562 525.980469 C 773.078125 467.539062 819.007812 405.269531 888.226562 376.601562 C 957.445312 347.929688 1033.949219 359.480469 1080.121094 395.960938 "/>
<path fill-rule="evenodd" fill="rgb(50.976562%, 50.976562%, 50.976562%)" fill-opacity="1" d="M 1250.140625 401.410156 C 1718.570312 401.410156 2098.871094 781.710938 2098.871094 1250.148438 C 2098.871094 1718.578125 1718.570312 2098.886719 1250.140625 2098.886719 C 781.703125 2098.886719 401.398438 1718.578125 401.398438 1250.148438 C 401.398438 781.710938 781.703125 401.410156 1250.140625 401.410156 "/>
<path fill-rule="evenodd" fill="rgb(90.429688%, 90.429688%, 90.429688%)" fill-opacity="1" d="M 1250.140625 439.339844 C 1697.628906 439.339844 2060.941406 802.648438 2060.941406 1250.148438 C 2060.941406 1697.640625 1697.628906 2060.949219 1250.140625 2060.949219 C 802.640625 2060.949219 439.332031 1697.640625 439.332031 1250.148438 C 439.332031 802.648438 802.640625 439.339844 1250.140625 439.339844 "/>
<path fill-rule="evenodd" fill="rgb(50.976562%, 50.976562%, 50.976562%)" fill-opacity="1" d="M 1250.140625 478.328125 C 1676.109375 478.328125 2021.949219 824.171875 2021.949219 1250.148438 C 2021.949219 1676.125 1676.109375 2021.964844 1250.140625 2021.964844 C 824.15625 2021.964844 478.316406 1676.125 478.316406 1250.148438 C 478.316406 824.171875 824.15625 478.328125 1250.140625 478.328125 "/>
<path fill-rule="evenodd" fill="rgb(90.429688%, 90.429688%, 90.429688%)" fill-opacity="1" d="M 1250.140625 499.160156 C 1664.621094 499.160156 2001.121094 835.660156 2001.121094 1250.148438 C 2001.121094 1664.628906 1664.621094 2001.136719 1250.140625 2001.136719 C 835.652344 2001.136719 499.144531 1664.628906 499.144531 1250.148438 C 499.144531 835.660156 835.652344 499.160156 1250.140625 499.160156 "/>
<path fill-rule="evenodd" fill="rgb(100%, 100%, 100%)" fill-opacity="1" d="M 1970.929688 1038.828125 C 1990.578125 1105.859375 2001.121094 1176.78125 2001.121094 1250.148438 C 2001.121094 1289.148438 1998.140625 1327.460938 1992.398438 1364.859375 L 1364.839844 1992.414062 C 1327.449219 1998.15625 1289.140625 2001.136719 1250.140625 2001.136719 C 1176.769531 2001.136719 1105.851562 1990.59375 1038.820312 1970.945312 Z M 1690.28125 641.761719 C 1806.75 726.199219 1898.078125 843.261719 1950.78125 979.460938 L 979.445312 1950.792969 C 843.242188 1898.074219 726.199219 1806.765625 641.75 1690.296875 Z M 1419.679688 518.410156 C 1446.050781 524.511719 1471.890625 531.988281 1497.089844 540.769531 L 540.761719 1497.101562 C 531.972656 1471.890625 524.492188 1446.058594 518.398438 1419.691406 Z M 938.335938 566.839844 C 1033.339844 523.378906 1138.929688 499.160156 1250.140625 499.160156 C 1279.851562 499.160156 1309.171875 500.890625 1337.980469 504.25 L 504.238281 1338 C 500.875 1309.179688 499.144531 1279.859375 499.144531 1250.148438 C 499.144531 1138.941406 523.367188 1033.351562 566.832031 938.351562 L 938.335938 566.839844 "/>
<path fill-rule="evenodd" fill="rgb(83.59375%, 83.59375%, 83.59375%)" fill-opacity="1" d="M 1250.140625 592.101562 L 1397.878906 1046.800781 L 1875.96875 1046.800781 L 1489.179688 1327.820312 L 1636.921875 1782.515625 L 1250.140625 1501.496094 L 863.34375 1782.515625 L 1011.089844 1327.820312 L 624.296875 1046.800781 L 1102.390625 1046.800781 L 1250.140625 592.101562 "/>
</svg>
