<svg id="Layer_1" data-name="Layer 1" xmlns="http://www.w3.org/2000/svg" viewBox="0 0 233.79 237.15"><defs><style>.cls-1{fill:#5df;}.cls-2{fill:#f55;}.cls-3{fill:#2ad4ff;}</style></defs><title>traslados</title><path class="cls-1" d="M96.94,80.86c-26.13,5-47.92,24.55-53.64,51.23-7.62,35.59,16.24,70.41,53.2,77.76s73.14-15.53,80.76-51.12S161.06,88.3,124.09,81A71.08,71.08,0,0,0,96.94,80.86Zm.6,3a67.57,67.57,0,0,1,25.93.14c35.34,7,58,40.2,50.75,74.15s-41.77,55.77-77.1,48.75-58-40.21-50.75-74.15c5.45-25.46,26.21-44.1,51.17-48.87"/><path class="cls-2" d="M115.16,146.64a5.22,5.22,0,0,1-2.24,3.29,5.08,5.08,0,0,1-7.83-5.29,5.26,5.26,0,0,1,6.13-4.09,5.07,5.07,0,0,1,3.94,6.09"/><path class="cls-1" d="M97.59,86.12C73.85,90.75,54,108.71,48.78,133.18c-7,32.63,14.58,64.52,48.13,71.19s66.45-14.4,73.45-47-14.58-64.48-48.14-71.16a63.81,63.81,0,0,0-24.63-.07ZM98,88a61.91,61.91,0,0,1,23.88.07c32.53,6.45,53.38,37.29,46.6,68.91s-38.6,52-71.13,45.53-53.37-37.31-46.6-68.92C55.78,109.86,75,92.48,98,88"/><path class="cls-2" d="M117.81,87.82,101.43,202.44l1,.15Q110.66,145.27,118.85,88l-1-.14"/><path class="cls-2" d="M51.4,137l-.13,1,117.6,15.41.13-1L51.4,137"/><path class="cls-2" d="M125.68,89.3q-16.05,55.77-32.07,111.51l1,.28q16-55.74,32.09-111.5l-1-.29"/><path class="cls-2" d="M53.12,129.36l-.26,1,114.3,30.71.29-1L53.12,129.36"/><path class="cls-2" d="M161.45,115.86,58.33,173.66l.52.89L162,116.75l-.52-.89"/><path class="cls-2" d="M81.15,94.87l-.88.51,58.86,100.16.9-.51Q110.6,144.95,81.15,94.87"/><path class="cls-1" d="M185.9,49.41a1.56,1.56,0,0,0-1.22,1Q174,78.76,163.24,107.09a1.51,1.51,0,0,0,.16,1.62,1.57,1.57,0,0,0,2.75-.57q10.72-28.33,21.44-56.66a1.54,1.54,0,0,0-.23-1.52,1.67,1.67,0,0,0-1.46-.55"/><path class="cls-1" d="M225,49.64q-20.21.54-40.4,1a1.24,1.24,0,0,0-1.14.62,1.21,1.21,0,0,0,0,1.27,1.29,1.29,0,0,0,1.16.56q20.22-.54,40.43-1a1.28,1.28,0,0,0,1.12-.63,1.17,1.17,0,0,0,0-1.26,1.29,1.29,0,0,0-1.16-.56"/><path class="cls-2" d="M225.23,46.21l-28.66.67a1.53,1.53,0,0,0-1.5,1.55v.91a1.45,1.45,0,0,0,.48,1.07,1.5,1.5,0,0,0,1.13.43l28.63-.66a1.56,1.56,0,0,0,1.1-.47,1.43,1.43,0,0,0,.43-1.07l0-.93a1.56,1.56,0,0,0-.48-1.07,1.64,1.64,0,0,0-1.11-.43"/><path class="cls-1" d="M114.9,56.63a1.51,1.51,0,0,0-.41,2.94l57.06,23.09a1.61,1.61,0,0,0,1.56-.18,1.52,1.52,0,0,0-.37-2.64L115.68,56.75a1.39,1.39,0,0,0-.78-.12"/><path class="cls-2" d="M126,58.8a4.62,4.62,0,0,0-3.89,2.54l-.42.84a4.44,4.44,0,0,0-.11,3.69,4.54,4.54,0,0,0,2.73,2.52l37,12.88A4.66,4.66,0,0,0,167.06,79l.41-.84a4.42,4.42,0,0,0,.11-3.68,4.55,4.55,0,0,0-2.73-2.53l-37-12.86A4.68,4.68,0,0,0,126,58.8"/><path class="cls-3" d="M114.25,57.54a60.56,60.56,0,0,1-5.66,6.39,7.52,7.52,0,0,1-2.72,1.61c-1.38.53-3.53,1.19-7.17,2.25-7.27,2.12-20.62,5.91-32.6,14.26a88.07,88.07,0,0,0-28.22,33.58C32.13,128.05,31.22,140,30.43,146a25.4,25.4,0,0,1-.62,3.38,2.59,2.59,0,0,1-.65,1.26c-.19.15-.42.24-1,.18a15.93,15.93,0,0,1-2.76-.59c-4.79-1.3-13.81-4.32-22.84-7.32l-.68,1.93c9,3,18.05,6,23,7.36a16.8,16.8,0,0,0,3.11.62,3.64,3.64,0,0,0,2.5-.57,4.38,4.38,0,0,0,1.38-2.32,26.41,26.41,0,0,0,.67-3.68c.81-6.13,1.72-17.73,7.29-29.79A86.43,86.43,0,0,1,67.32,83.71c11.63-8.12,24.7-11.87,32-14,3.64-1,5.79-1.67,7.32-2.28a10.38,10.38,0,0,0,3.38-2,59.68,59.68,0,0,0,5.89-6.64l-1.64-1.25"/><path class="cls-1" d="M44.13,161.73c-5.07.57-10.15,1.15-15.23,1.7A1,1,0,0,0,28,164a1,1,0,0,0,.13,1.07,1,1,0,0,0,1,.36c5.08-.56,10.16-1.11,15.24-1.68a1,1,0,0,0,.84-.6,1,1,0,0,0-.12-1,1.07,1.07,0,0,0-1-.41"/><path class="cls-1" d="M23.47,155.57c-7.32-1.45-14.54,3-16,10s3.32,13.85,10.64,15.3,14.54-3,16-10S30.79,157,23.47,155.57Zm-.63,3c5.73,1.13,9.35,6.38,8.21,11.72s-6.63,8.77-12.36,7.64-9.37-6.39-8.23-11.73,6.66-8.77,12.38-7.63"/><path class="cls-1" d="M22.46,155.18q-2.12,12.47-4.24,24.9l1.43.26q2.12-12.47,4.23-24.93l-1.42-.23"/><path class="cls-1" d="M8.39,165.06l-.24,1.39,25.57,4L34,169l-25.57-4"/><path class="cls-1" d="M13.47,157.55l-1.14.88L28.64,178l1.14-.92L13.47,157.55"/><path class="cls-1" d="M32.22,161.25,9.22,173l.67,1.27,23-11.73-.67-1.27"/></svg>