<svg id="Layer_1" data-name="Layer 1" xmlns="http://www.w3.org/2000/svg" viewBox="0 0 191.77 243.04"><defs><style>.cls-1{fill:#1b00f4;}</style></defs><title>valores</title><path class="cls-1" d="M9.24,27.74a3.77,3.77,0,0,0-3.69,3.79V224.79a3.8,3.8,0,0,0,3.69,3.79H126.75a38.93,38.93,0,0,1-7.38-6.18H11.57V33.91h27V27.74Zm115,0v6.17h25.66V155.14a37.75,37.75,0,0,1,6,.55V31.53a3.8,3.8,0,0,0-3.69-3.79h-28"/><path class="cls-1" d="M80.88,4.32A15.57,15.57,0,1,0,96.16,19.89,15.49,15.49,0,0,0,80.88,4.32Zm0,7.91a7.46,7.46,0,0,1,7.37,7.66,7.38,7.38,0,1,1-14.75,0,7.47,7.47,0,0,1,7.38-7.66"/><path class="cls-1" d="M44.29,19.94a.84.84,0,0,0-.83.85V42.46a.84.84,0,0,0,.83.85H119a.84.84,0,0,0,.83-.85V20.79a.84.84,0,0,0-.83-.85H95.69a16.05,16.05,0,0,1-30.26,0H44.29"/><path class="cls-1" d="M125.77,191.22V192a24,24,0,0,0,48.08,0v-.75h-2.57c0,.25,0,.5,0,.75a21.47,21.47,0,0,1-42.93,0c0-.25,0-.5,0-.75h-2.63"/><path class="cls-1" d="M135.55,189.67h-.09l-8.36.23a1.29,1.29,0,0,0-1.11.69,1.34,1.34,0,0,0,0,1.33,1.29,1.29,0,0,0,1.15.62l8.36-.23a1.32,1.32,0,0,0,0-2.64"/><path class="cls-1" d="M164.29,189.67a1.28,1.28,0,0,0-1.15.63,1.34,1.34,0,0,0,0,1.33,1.29,1.29,0,0,0,1.12.68l8.36.23a1.28,1.28,0,0,0,1.15-.62,1.34,1.34,0,0,0,0-1.33,1.28,1.28,0,0,0-1.11-.69l-8.36-.22"/><path class="cls-1" d="M150.32,214.75a1.45,1.45,0,0,0-1.39,1.5c0,3.45,0,7.79-.05,11.57a1.47,1.47,0,0,0,.71,1.3,1.42,1.42,0,0,0,1.45,0,1.48,1.48,0,0,0,.71-1.3c0-3.75.09-8.1.05-11.62a1.49,1.49,0,0,0-.44-1.05,1.36,1.36,0,0,0-1-.41"/><path class="cls-1" d="M135.5,187.62a1.49,1.49,0,0,0-1.45,1.52v3.36a1.51,1.51,0,0,0,.73,1.32,1.41,1.41,0,0,0,1.48,0,1.49,1.49,0,0,0,.73-1.32v-3.36a1.55,1.55,0,0,0-.43-1.08,1.46,1.46,0,0,0-1.06-.44"/><path class="cls-1" d="M164.33,187.62a1.49,1.49,0,0,0-1.45,1.52v3.36a1.53,1.53,0,0,0,.73,1.32,1.45,1.45,0,0,0,1.48,0,1.56,1.56,0,0,0,.73-1.32v-3.36a1.55,1.55,0,0,0-.43-1.08,1.47,1.47,0,0,0-1.06-.44"/><path class="cls-1" d="M149.89,156.2c-19.68,0-35.66,16.37-35.66,36.52a36.85,36.85,0,0,0,10,25.29,13.15,13.15,0,0,1,2.74-1.43,33.76,33.76,0,0,1-9.74-23.86c0-18.52,14.63-33.5,32.71-33.5s32.71,15,32.71,33.5-14.63,33.5-32.71,33.5h-.47a9.11,9.11,0,0,1,.19,3h.28c19.68,0,35.66-16.36,35.66-36.52s-16-36.51-35.66-36.51"/><path class="cls-1" d="M128.43,214.7a6,6,0,1,0,6,6A6,6,0,0,0,128.43,214.7Zm0,2.59a3.43,3.43,0,1,1-3.45,3.42,3.42,3.42,0,0,1,3.45-3.42"/><path class="cls-1" d="M130.53,220.76a2.16,2.16,0,0,1-2.14,2.18,2.13,2.13,0,0,1-1.52-.64,2.2,2.2,0,0,1-.63-1.54,2.23,2.23,0,0,1,.63-1.55,2.13,2.13,0,0,1,1.52-.64,2.17,2.17,0,0,1,2.14,2.19"/><path class="cls-1" d="M46.29,174.09l-4.81,18L29,192.17v1.55l13.7-.08L46.86,178l5,30.18h1.53l3.32-19.07,13.36.43,0-1.55-14.71-.48-2.77,15.92L47.8,174.16l-1.51-.07"/><path class="cls-1" d="M74,170.64l-5,18.59,1.5.4,4-15.13,5,30.19h1.53l3.32-19.07,13.35.43.06-1.55L83.18,184,80.41,200l-4.88-29.24L74,170.64"/><path class="cls-1" d="M44.29,19.94a.84.84,0,0,0-.83.85V42.46a.84.84,0,0,0,.83.85H119a.84.84,0,0,0,.83-.85V20.79a.84.84,0,0,0-.83-.85H95.69a16.05,16.05,0,0,1-30.26,0H44.29"/><path class="cls-1" d="M28.63,71.92A1.65,1.65,0,0,0,27,73.55V90.2a1.65,1.65,0,0,0,1.62,1.63H44.87a1.65,1.65,0,0,0,1.62-1.63V73.55a1.65,1.65,0,0,0-1.62-1.63Zm.35,2H44.52v16H29v-16"/><path class="cls-1" d="M28.63,114.27A1.65,1.65,0,0,0,27,115.91v16.64a1.65,1.65,0,0,0,1.62,1.64H44.87a1.65,1.65,0,0,0,1.62-1.64V115.91a1.65,1.65,0,0,0-1.62-1.64Zm.35,2H44.52v16H29v-16"/><path class="cls-1" d="M136.05,70.69l-65.78.13a.69.69,0,0,0-.61.33.71.71,0,0,0,0,.69.7.7,0,0,0,.61.34l65.78-.13a.68.68,0,0,0,.61-.34.69.69,0,0,0-.61-1"/><path class="cls-1" d="M136.05,77.12l-76.71.13a.71.71,0,0,0-.64.36.73.73,0,0,0,0,.74.73.73,0,0,0,.65.36l76.71-.13a.71.71,0,0,0,.64-.36.75.75,0,0,0,0-.74.73.73,0,0,0-.65-.36"/><path class="cls-1" d="M136.05,83.39l-76.71.13a.73.73,0,1,0,0,1.46l76.71-.12a.74.74,0,0,0,.64-.37.73.73,0,0,0,0-.74.73.73,0,0,0-.65-.36"/><path class="cls-1" d="M124.53,89.87,59.14,90a.73.73,0,0,0-.63,1.09.75.75,0,0,0,.64.36l65.38-.15a.73.73,0,1,0,0-1.45"/><path class="cls-1" d="M136.05,113.9,70.27,114a.67.67,0,0,0-.59.34.64.64,0,0,0,0,.68.68.68,0,0,0,.59.34l65.79-.13a.7.7,0,0,0,.59-.34.66.66,0,0,0,0-.68.64.64,0,0,0-.59-.33"/><path class="cls-1" d="M136.05,120.32l-76.71.13a.71.71,0,0,0-.64.36.73.73,0,0,0,0,.74.71.71,0,0,0,.65.36l76.71-.13a.71.71,0,0,0,.64-.36.75.75,0,0,0,0-.74.71.71,0,0,0-.65-.36"/><path class="cls-1" d="M136.05,126.59l-76.71.13a.74.74,0,1,0,0,1.47l76.71-.13a.72.72,0,0,0,.63-.37.74.74,0,0,0-.64-1.1"/><path class="cls-1" d="M124.53,133.08l-65.39.14a.73.73,0,1,0,0,1.45l65.38-.15a.74.74,0,0,0,.65-.35.73.73,0,0,0,0-.74.7.7,0,0,0-.64-.35"/></svg>